<svg width="545" height="410" viewBox="0 0 545 410" fill="none" xmlns="http://www.w3.org/2000/svg">
<g clip-path="url(#clip0_4_1676)">
<path d="M151.064 299.079H372.881V142.598C372.881 138.309 369.403 134.833 365.113 134.833H158.839C154.55 134.833 151.072 138.309 151.072 142.598V299.079H151.064Z" fill="url(#paint0_linear_4_1676)"/>
<path d="M158.905 269.222H364.646V142.869H158.905V269.222Z" fill="url(#paint1_linear_4_1676)"/>
<path d="M137.292 143.459H84.9604L85.0506 142.992C85.8873 138.678 89.6932 135.554 94.0979 135.554C94.7295 135.554 95.3693 135.62 95.9844 135.751C98.7076 130.569 104.006 127.362 109.879 127.362C114.883 127.362 119.607 129.765 122.56 133.799C123.635 133.471 124.758 133.307 125.899 133.307C131.591 133.307 136.357 137.383 137.226 143L137.292 143.459ZM85.9283 142.672H136.373C135.389 137.752 130.968 134.086 125.899 134.086C124.75 134.086 123.618 134.267 122.536 134.628L122.257 134.718L122.093 134.48C119.296 130.511 114.727 128.141 109.879 128.141C104.203 128.141 99.0931 131.29 96.5422 136.366L96.4028 136.645L96.0993 136.571C95.4513 136.407 94.7705 136.325 94.0979 136.325C90.2346 136.333 86.8716 138.974 85.9283 142.672Z" fill="#6AAFE8"/>
<path d="M329.49 79.0562L329.31 78.966C310.74 69.4868 313.233 51.127 313.258 50.9466L313.307 50.6104H313.643C325.455 50.6104 329.162 46.8056 329.195 46.7646L329.482 46.4612L329.769 46.7646C329.802 46.7974 333.518 50.6022 345.321 50.6022H345.657L345.706 50.9384C345.731 51.1188 348.225 69.4786 329.654 78.9578L329.49 79.0562ZM314.004 51.3894C313.766 53.874 312.987 69.6344 329.49 78.1788C346.002 69.6344 345.214 53.8822 344.985 51.3894C334.732 51.3238 330.557 48.4702 329.49 47.5682C328.424 48.4702 324.249 51.332 314.004 51.3894Z" fill="#6AAFE8"/>
<path d="M431.11 323.031C428.313 310.263 434.358 307.074 440.198 303.99C444.972 301.473 449.483 299.095 449.237 291.567C448.917 281.588 455.717 277.964 461.713 274.757C466.175 272.371 470.391 270.124 471.023 265.582C472.532 254.659 482.613 241.08 482.719 240.949L483.343 241.416C483.244 241.547 473.286 254.971 471.794 265.696C471.113 270.633 466.725 272.97 462.082 275.454C456.004 278.702 449.713 282.055 450.016 291.551C450.271 299.562 445.333 302.17 440.559 304.687C434.719 307.771 429.207 310.682 431.873 322.867L431.11 323.031Z" fill="url(#paint2_linear_4_1676)"/>
<path d="M434.177 319.775C434.046 319.775 433.907 319.767 433.776 319.759C431.249 319.57 428.772 317.652 425.983 313.724L425.811 313.478L426.008 313.248C426.049 313.191 430.527 307.746 428.887 297.512C428.501 295.126 427.993 293.298 427.583 291.83C426.984 289.69 426.582 288.271 427.246 287.148C428.091 285.713 430.372 284.966 436.794 283.433C443.635 281.801 445.915 274.101 447.933 267.304C449.836 260.899 451.632 254.864 456.955 255.053C461.844 255.241 469.275 247.583 475.821 240.826C481.899 234.561 487.641 228.657 491.307 228.772C492.185 228.805 492.931 229.174 493.514 229.871C496.786 233.766 493.735 239.67 490.782 245.385C488.264 250.256 485.885 254.864 487.419 257.898C489.347 261.711 489.609 265.163 488.198 267.878C486.525 271.092 482.629 273.167 476.608 274.036C471.105 274.831 470.506 280.834 469.882 287.189C469.144 294.601 468.316 303.006 459.08 303.81C452.223 304.4 447.597 309.214 443.52 313.461C440.264 316.84 437.442 319.775 434.177 319.775ZM426.795 313.511C429.338 317.028 431.643 318.824 433.841 318.988C436.909 319.218 439.706 316.299 442.946 312.928C447.121 308.582 451.854 303.654 459.006 303.039C467.594 302.293 468.357 294.585 469.103 287.123C469.768 280.456 470.391 274.159 476.502 273.273C482.26 272.437 485.967 270.51 487.518 267.533C488.814 265.049 488.543 261.842 486.73 258.267C485.016 254.872 487.485 250.1 490.101 245.041C492.939 239.555 495.868 233.88 492.931 230.387C492.488 229.862 491.955 229.592 491.291 229.567C487.977 229.461 482.35 235.242 476.395 241.383C469.489 248.501 462.361 255.848 457.136 255.848C457.07 255.848 457.005 255.848 456.939 255.848C452.223 255.676 450.582 261.17 448.696 267.541C446.621 274.544 444.266 282.474 436.983 284.204C431.175 285.59 428.633 286.36 427.927 287.549C427.427 288.394 427.771 289.608 428.337 291.625C428.756 293.109 429.272 294.962 429.666 297.389C431.175 306.893 427.673 312.322 426.795 313.511Z" fill="url(#paint3_linear_4_1676)"/>
<path d="M434.464 317.102C434.374 317.102 434.284 317.102 434.194 317.086C430.052 316.709 426.861 307.631 423.785 298.857C422.325 294.692 420.947 290.764 419.602 288.238C418.56 286.278 417.231 284.237 415.952 282.269C412.539 277.012 409.012 271.576 410.161 266.803C410.768 264.294 412.564 262.203 415.665 260.416C422.456 256.504 421.406 254.298 419.118 249.452C417.436 245.902 415.14 241.039 415.049 233.38C415.008 230.092 414.935 227.247 414.869 224.737C414.656 216.669 414.541 212.618 416.272 211.15C416.985 210.543 417.986 210.387 419.413 210.658C421.857 211.125 422.916 213.093 424.031 215.184C425.458 217.849 427.074 220.867 431.963 221.892C436.548 222.851 440.953 224.155 442.167 227.206C443.02 229.346 442.216 232.158 439.689 235.816C439.074 236.701 438.869 237.456 439.05 238.12C439.452 239.588 441.732 240.654 444.373 241.892C448.138 243.647 452.813 245.828 454.142 250.354C455.208 254.003 453.97 258.546 450.361 264.253C441.814 277.759 442.158 286.918 442.462 294.995C442.683 300.981 442.897 306.639 439.288 312.953C437.696 315.741 436.113 317.102 434.464 317.102ZM418.183 211.322C417.576 211.322 417.116 211.462 416.772 211.757C415.337 212.979 415.443 217.152 415.648 224.721C415.714 227.23 415.788 230.084 415.829 233.38C415.919 240.867 418.175 245.639 419.823 249.132C422.095 253.938 423.465 256.832 416.05 261.104C413.146 262.777 411.465 264.704 410.915 266.992C409.849 271.436 413.286 276.725 416.608 281.85C417.896 283.835 419.233 285.893 420.291 287.877C421.661 290.452 423.055 294.413 424.523 298.603C427.386 306.746 430.626 315.979 434.268 316.307C435.662 316.43 437.122 315.175 438.615 312.559C442.117 306.434 441.92 301.145 441.691 295.011C441.387 286.82 441.035 277.529 449.713 263.827C453.199 258.316 454.405 253.979 453.404 250.567C452.173 246.385 447.859 244.368 444.053 242.597C441.231 241.285 438.795 240.145 438.303 238.325C438.057 237.423 438.303 236.463 439.058 235.373C441.42 231.953 442.199 229.379 441.453 227.501C440.37 224.795 435.974 223.54 431.815 222.663C426.574 221.564 424.794 218.235 423.358 215.562C422.284 213.561 421.357 211.831 419.282 211.437C418.855 211.363 418.494 211.322 418.183 211.322Z" fill="url(#paint4_linear_4_1676)"/>
<path d="M434.547 321.948L433.8 321.711C437.975 308.517 430.421 278.898 428.173 271.699C427.066 268.156 428.091 262.818 429.076 257.66C430.355 251.002 431.676 244.106 428.304 241.523C421.98 236.668 422.309 225.451 422.325 224.975L423.104 225.008C423.104 225.123 422.768 236.299 428.78 240.908C432.537 243.786 431.167 250.912 429.838 257.808C428.87 262.876 427.862 268.107 428.911 271.461C431.7 280.374 438.713 308.779 434.547 321.948Z" fill="url(#paint5_linear_4_1676)"/>
<path d="M402.959 236.217C401.22 231.806 394.429 232.478 395.052 238.71C395.675 244.95 400.047 251.609 393.387 262.211C386.727 272.822 401.917 274.897 407.323 281.555C412.728 288.214 414.606 297.365 419.183 303.187C423.76 309.009 426.877 322.949 430.626 317.742C434.374 312.543 430.847 305.778 431.266 296.422C431.684 287.066 440.018 281.137 431.684 275.102C423.35 269.067 414.967 267.222 417.723 253.618C418.929 247.632 408.364 249.944 402.959 236.217Z" fill="url(#paint6_linear_4_1676)"/>
<path d="M436.687 318.955C436.638 318.677 432.012 291.264 421.652 283.753C411.088 276.094 409.168 269.017 405.477 252.322L406.24 252.158C409.882 268.64 411.777 275.627 422.103 283.121C432.726 290.821 437.262 317.693 437.45 318.832L436.687 318.955Z" fill="white"/>
<path d="M427.345 317.971C427.345 317.971 430.421 310.362 424.818 299.546C419.216 288.73 414.68 290.395 428.19 282.072C441.691 273.749 428.272 247.542 439.771 244.212C451.263 240.883 461.254 198.465 469.989 203.86C478.733 209.264 467.077 230.067 473.319 236.299C479.561 242.54 480.398 250.477 467.496 256.914C454.593 263.343 476.649 287.894 459.17 295.38C441.691 302.875 446.702 332.239 427.345 317.971Z" fill="url(#paint7_linear_4_1676)"/>
<path d="M432.685 326.04C432.668 325.942 430.782 316.2 436.72 303.613C442.774 290.788 445.669 276.766 444.463 266.106C443.815 260.334 447.515 258.079 451.091 255.889C454.61 253.741 458.251 251.519 458.055 245.828C457.874 240.686 460.048 228.641 460.138 228.132L460.909 228.272C460.884 228.395 458.653 240.744 458.834 245.795C459.047 251.937 455.208 254.282 451.493 256.553C447.966 258.702 444.644 260.735 445.234 266.016C446.448 276.816 443.528 290.993 437.417 303.941C431.594 316.282 433.415 325.786 433.439 325.884L432.685 326.04Z" fill="white"/>
<path d="M446.809 272.281C450.738 268.64 455.922 268.115 454.839 273.519C453.757 278.923 450.049 280.473 451.903 283.868C453.757 287.262 456.849 290.665 451.591 294.839C446.333 299.013 443.405 299.472 441.855 307.352C440.313 315.233 440.616 320.612 433.817 320.948C427.017 321.284 429.642 311.37 431.807 306.893C431.807 306.893 435.055 301.785 432.89 295.069C430.724 288.353 426.557 284.729 435.359 282.449C444.176 280.161 444.16 274.733 446.809 272.281Z" fill="white"/>
<path d="M434.317 325.975C434.292 325.007 433.825 302.318 438.074 298.496C442.413 294.593 443.241 287.697 443.356 283.941C443.504 279.038 449.836 276.127 450.106 276.012L450.426 276.725C450.361 276.75 444.266 279.554 444.135 283.966C443.996 288.714 442.921 295.192 438.598 299.079C434.62 302.662 435.096 325.729 435.104 325.958L434.317 325.975Z" fill="url(#paint8_linear_4_1676)"/>
<path d="M450.262 316.709L443.225 343.424H427.484L420.438 316.709H450.262Z" fill="url(#paint9_linear_4_1676)"/>
<path d="M450.262 316.709C450.262 316.709 434.76 319.62 434.76 343.424H427.484L420.438 316.709H450.262Z" fill="url(#paint10_linear_4_1676)"/>
<path d="M172.8 246.91H152.072V249.255H172.8V246.91Z" fill="#1487E3"/>
<path d="M147.742 182.171H114.661V139.867H115.441V181.384H147.742V182.171Z" fill="#78C2FF"/>
<path d="M287.781 154.299H286.994V110.684H329.097V74.005H329.884V111.463H287.781V154.299Z" fill="#78C2FF"/>
<path d="M423.793 202.884H379.984V202.097H423.014V176.669H423.793V202.884Z" fill="#78C2FF"/>
<path d="M96.2879 238.218C96.2879 238.218 95.3528 251.379 97.9202 252.954C99.5279 253.938 105.95 257.267 105.762 257.89C105.573 258.513 102.136 263.441 102.136 263.441C102.136 263.441 89.7998 255.315 89.3979 252.757C89.0124 250.256 90.0049 233.487 91.7028 232.716C92.9742 232.134 93.6468 232.618 95.2462 233.807C97.4937 235.479 96.2879 238.218 96.2879 238.218Z" fill="#FF7E55"/>
<path d="M94.8525 333.978C94.8525 333.978 94.467 336.643 94.4178 337.036C94.3686 337.438 90.1525 336.799 90.1525 336.799L89.808 333.625C89.808 333.633 94.3193 333.601 94.8525 333.978Z" fill="#424773"/>
<path d="M94.467 336.7C94.467 336.7 95.804 338.307 97.1 339.004C98.3959 339.701 100.422 339.98 101.193 340.702C101.743 341.227 103.203 343.473 97.83 343.424C92.4574 343.375 89.8655 343.744 89.2913 342.883C88.7171 342.022 90.1197 336.52 90.1197 336.52C90.1197 336.52 91.3911 336.979 94.467 336.7Z" fill="#292C47"/>
<path d="M115.974 333.978C115.974 333.978 115.588 336.643 115.539 337.036C115.49 337.438 111.274 336.799 111.274 336.799L110.929 333.625C110.929 333.633 115.441 333.601 115.974 333.978Z" fill="#424773"/>
<path d="M115.588 336.7C115.588 336.7 116.925 338.307 118.221 339.004C119.517 339.701 124.275 340.275 125.037 341.005C125.587 341.53 126.506 343.629 118.951 343.432C113.579 343.293 110.987 343.752 110.412 342.891C109.838 342.03 111.249 336.528 111.249 336.528C111.249 336.528 112.438 337.012 115.588 336.7Z" fill="#292C47"/>
<path d="M96.3617 265.565C96.3617 265.565 92.4 271.863 92.6953 277.554C92.9906 283.244 92.3426 289.329 91.7438 295.274C91.0794 301.908 89.2749 315.7 89.1764 319.251C89.078 322.801 89.3077 336.143 89.3077 336.143L96.1895 336.093C96.1895 336.093 98.6338 309.132 99.815 306.336C100.996 303.531 105.852 283.277 106.049 281.039C106.237 278.8 96.3617 265.565 96.3617 265.565Z" fill="#292C47"/>
<path d="M117.237 266.418C117.237 266.418 118.804 281.9 119.197 285.376C119.591 288.861 119.32 303.958 119.517 306.139C119.714 308.32 118.197 331.354 117.827 335.741L110.265 335.692C110.265 335.692 109.74 317.061 109.74 308.008C109.74 298.956 107.419 288.419 104.753 282.441C102.087 276.463 95.9926 276.324 94.3604 265.245C94.3686 265.245 115.022 262.908 117.237 266.418Z" fill="#292C47"/>
<path d="M100.553 212.462C100.553 212.462 105.278 209.305 108.592 212.683C111.905 216.062 113.538 224.008 111.159 225.598C108.772 227.181 104.736 227.599 102.817 225.451C100.898 223.302 98.8471 220.014 98.3467 217.62C97.8464 215.225 99.3556 213.471 100.553 212.462Z" fill="#EEA886"/>
<path d="M109.551 226.14C109.551 226.14 109.486 229.461 109.855 230.166C110.224 230.871 102.956 230.896 102.956 230.896C102.956 230.896 102.366 227.05 101.25 223.794C100.135 220.539 109.551 226.14 109.551 226.14Z" fill="#EEA886"/>
<path d="M101.439 223.737C101.439 223.737 102.12 224.426 104.031 223.647C105.95 222.868 107.755 219.645 108.518 219.161C109.281 218.678 109.174 218.186 109.174 218.186L109.871 218.825L110.765 218.669C110.765 218.669 109.404 216.488 110.388 215.242C111.372 213.987 107.32 207.87 101.455 211.609C101.455 211.609 96.8703 214.118 97.7069 216.865C98.5518 219.596 100.012 222.605 101.439 223.737Z" fill="#754836"/>
<path d="M110.289 230.076C110.289 230.076 110.265 228.723 109.65 228.591C109.034 228.46 102.883 227.87 102.128 228.165V229.739C102.136 229.748 103.588 230.641 110.289 230.076Z" fill="#E2D2CA"/>
<path d="M108.805 217.193C108.583 216.751 107.074 215.693 106.959 217.234C106.844 218.776 108.436 220.432 109.043 220.113C109.633 219.801 109.363 218.317 108.805 217.193Z" fill="#EEA886"/>
<path d="M99.1834 213.274C99.1834 213.274 92.4246 215.086 101.16 223.475L99.1834 213.274Z" fill="#754836"/>
<path d="M159.561 249.19L152.679 249.124C153.27 248.78 154.238 248.157 154.025 247.87C153.721 247.468 151.769 248.353 150.982 248.435C150.251 248.509 149.038 248.419 148.111 248.755L145.937 249.682L147.93 251.527C147.93 251.527 151.531 252.043 152.589 252.117C154.303 252.24 159.545 250.198 159.635 249.887C159.774 249.329 159.561 249.19 159.561 249.19Z" fill="#EEA886"/>
<path d="M119.279 231.953C114.899 231.183 110.289 230.076 110.289 230.076L102.136 229.739C102.136 229.739 94.6557 231.388 91.7028 232.716C91.4239 232.839 91.4239 239.391 90.6529 241.113L93.0972 246.271C93.0972 246.271 94.508 256.48 94.8033 261.022C94.9345 263.105 91.8914 280.571 91.8914 280.571C91.8914 280.571 95.156 281.531 100.725 282.146C106.295 282.761 120.198 281.924 120.288 281.268C120.378 280.612 117.598 256.799 117.475 255.561C117.286 253.667 118.024 244.926 118.024 244.926C119.074 246.336 125.136 251.617 128.097 253.298C130.205 254.495 135.364 253.765 136.89 253.61C140.179 253.273 149.275 252.626 149.456 252.298C149.595 252.101 148.931 248.788 148.554 248.665C148.217 248.55 136.48 247.976 133.535 248.124C132.337 248.189 128.441 243.835 128.441 243.835C128.441 243.835 121.699 233.036 119.279 231.953Z" fill="#FF7E55"/>
<path d="M69.1216 198.998H90.6775V214.61V217.907L87.3883 214.61H69.1216V198.998Z" fill="#FFCB55"/>
<path d="M416.272 149.281H395.323V128.338H416.272V149.281ZM396.028 148.584H415.574V129.043H396.028V148.584Z" fill="#6AAFE8"/>
<path d="M468.406 136.022H420.463V130.905H468.406V136.022ZM421.16 135.325H467.701V131.602H421.16V135.325Z" fill="#6AAFE8"/>
<path d="M468.406 159.826H395.331V154.709H468.406V159.826ZM396.028 159.129H467.701V155.406H396.028V159.129Z" fill="#6AAFE8"/>
<path d="M441.871 169.65H395.331V164.533H441.871V169.65ZM396.028 168.953H441.174V165.23H396.028V168.953Z" fill="#6AAFE8"/>
<path d="M452.928 145.788H420.463V140.671H452.928V145.788ZM421.16 145.091H452.231V141.368H421.16V145.091Z" fill="#6AAFE8"/>
<path d="M476.723 180.785H387.014V117.211H476.723V180.785ZM387.711 180.088H476.026V117.916H387.711V180.088Z" fill="#6AAFE8"/>
<path d="M355.377 88.7404H348.667V87.9614H354.598V82.0328H355.377V88.7404Z" fill="#6AAFE8"/>
<path d="M310.239 88.7404H303.53V82.0328H304.309V87.9614H310.239V88.7404Z" fill="#6AAFE8"/>
<path d="M304.317 43.624H303.53V36.9082H310.239V37.6954H304.317V43.624Z" fill="#6AAFE8"/>
<path d="M355.377 43.6158H354.598V37.6954H348.667V36.9164H355.377V43.6158Z" fill="#6AAFE8"/>
<path d="M355.377 53.6362H354.598V72.0124H355.377V53.6362Z" fill="#6AAFE8"/>
<path d="M304.317 53.6362H303.53V72.0124H304.317V53.6362Z" fill="#6AAFE8"/>
<path d="M115.047 140.261C113.464 140.261 112.176 138.974 112.176 137.391C112.176 135.808 113.464 134.521 115.047 134.521C116.63 134.521 117.918 135.808 117.918 137.391C117.918 138.974 116.63 140.261 115.047 140.261ZM115.047 135.3C113.89 135.3 112.955 136.235 112.955 137.391C112.955 138.547 113.89 139.482 115.047 139.482C116.203 139.482 117.138 138.547 117.138 137.391C117.138 136.235 116.203 135.3 115.047 135.3Z" fill="#78C2FF"/>
<path d="M329.49 74.3904C327.907 74.3904 326.619 73.103 326.619 71.5204C326.619 69.9378 327.907 68.6504 329.49 68.6504C331.073 68.6504 332.361 69.9378 332.361 71.5204C332.361 73.103 331.073 74.3904 329.49 74.3904ZM329.49 69.4294C328.342 69.4294 327.399 70.3642 327.399 71.5204C327.399 72.6766 328.334 73.6114 329.49 73.6114C330.647 73.6114 331.582 72.6766 331.582 71.5204C331.582 70.3642 330.647 69.4294 329.49 69.4294Z" fill="#78C2FF"/>
<path d="M423.399 177.194C421.816 177.194 420.529 175.906 420.529 174.324C420.529 172.741 421.816 171.454 423.399 171.454C424.983 171.454 426.27 172.741 426.27 174.324C426.279 175.906 424.983 177.194 423.399 177.194ZM423.399 172.233C422.243 172.233 421.308 173.168 421.308 174.324C421.308 175.48 422.243 176.415 423.399 176.415C424.556 176.415 425.491 175.48 425.491 174.324C425.491 173.176 424.556 172.233 423.399 172.233Z" fill="#78C2FF"/>
<path d="M134.101 60.5078H114.382V40.795H134.101V60.5078ZM115.162 59.7288H133.314V41.574H115.162V59.7288Z" fill="#A1D4FF"/>
<path d="M124.635 46.166H123.856V55.3582H124.635V46.166Z" fill="#A1D4FF"/>
<path d="M128.843 50.3726H119.648V51.1516H128.843V50.3726Z" fill="#A1D4FF"/>
<path d="M434.629 84.2878H406.437V64.1732H434.629V84.2878ZM407.216 83.5088H433.841V64.9522H407.216V83.5088Z" fill="#A1D4FF"/>
<path d="M420.529 76.3584L406.576 64.862L407.077 64.2634L420.529 75.3416L433.989 64.2634L434.481 64.862L420.529 76.3584Z" fill="#A1D4FF"/>
<path d="M424.387 72.9556L423.821 73.4917L433.937 84.1525L434.502 83.6164L424.387 72.9556Z" fill="#A1D4FF"/>
<path d="M416.672 72.9866L406.564 83.6547L407.129 84.1904L417.238 73.5223L416.672 72.9866Z" fill="#A1D4FF"/>
<path d="M183.315 104.501L183.02 103.738C182.758 103.705 182.503 103.648 182.249 103.558L181.65 104.115L179.911 102.877L180.248 102.131C180.084 101.918 179.944 101.696 179.829 101.459L179.009 101.434L178.656 99.3348L179.419 99.0396C179.452 98.7772 179.509 98.5148 179.6 98.2688L179.042 97.6702L180.28 95.9318L181.027 96.268C181.24 96.104 181.462 95.9646 181.699 95.8498L181.724 95.0298L183.824 94.6772L184.119 95.4398C184.382 95.4726 184.644 95.53 184.89 95.6202L185.489 95.0626L187.228 96.3008L186.892 97.047C187.056 97.2602 187.195 97.4816 187.31 97.7194L188.13 97.744L188.483 99.8432L187.72 100.138C187.687 100.401 187.622 100.663 187.54 100.909L188.106 101.508L186.867 103.246L186.121 102.91C185.915 103.074 185.686 103.213 185.448 103.328L185.423 104.148L183.315 104.501ZM182.11 102.877L182.282 102.943C182.594 103.066 182.922 103.14 183.258 103.164L183.438 103.181L183.693 103.837L184.849 103.64L184.874 102.935L185.046 102.861C185.35 102.721 185.637 102.549 185.891 102.336L186.03 102.221L186.67 102.508L187.351 101.557L186.867 101.049L186.933 100.876C187.056 100.565 187.129 100.237 187.154 99.9088L187.17 99.7284L187.827 99.4742L187.63 98.318L186.924 98.2934L186.851 98.1294C186.711 97.826 186.539 97.539 186.326 97.2848L186.211 97.1454L186.498 96.5058L185.546 95.8252L185.03 96.309L184.857 96.2434C184.546 96.1204 184.218 96.0466 183.89 96.022L183.709 96.0056L183.455 95.3496L182.298 95.5464L182.274 96.2516L182.101 96.3254C181.798 96.4648 181.511 96.637 181.257 96.8502L181.117 96.965L180.477 96.678L179.797 97.6292L180.28 98.1376L180.215 98.3098C180.1 98.6214 180.018 98.9494 179.993 99.2856L179.977 99.466L179.321 99.7202L179.518 100.876L180.223 100.901L180.297 101.065C180.436 101.368 180.609 101.655 180.83 101.91L180.945 102.049L180.658 102.689L181.609 103.369L182.11 102.877ZM183.561 101.901C183.086 101.901 182.618 101.754 182.224 101.475C181.183 100.737 180.937 99.2856 181.683 98.2442C182.421 97.2028 183.873 96.9568 184.915 97.703C185.423 98.0638 185.751 98.5968 185.858 99.2036C185.957 99.8104 185.817 100.425 185.464 100.934C185.103 101.442 184.57 101.77 183.963 101.877C183.824 101.893 183.693 101.901 183.561 101.901ZM183.57 97.8588C183.028 97.8588 182.495 98.113 182.159 98.5886C181.888 98.9658 181.781 99.425 181.864 99.876C181.937 100.335 182.192 100.729 182.569 100.999C182.946 101.27 183.406 101.377 183.857 101.295C184.308 101.221 184.71 100.967 184.98 100.589C185.251 100.212 185.358 99.753 185.276 99.302C185.202 98.8428 184.948 98.4492 184.57 98.1786C184.267 97.9572 183.914 97.8588 183.57 97.8588Z" fill="#A1D4FF"/>
<path d="M167.025 106.953L166.369 105.239C165.664 105.157 164.975 105.001 164.31 104.771L162.973 106.026L159.348 103.443L160.094 101.77C159.66 101.221 159.282 100.622 158.979 99.9826L157.15 99.9252L156.411 95.5382L158.126 94.8822C158.208 94.177 158.364 93.4882 158.593 92.824L157.338 91.4874L159.914 87.863L161.587 88.6092C162.137 88.1664 162.736 87.7974 163.375 87.494L163.433 85.6654L167.821 84.9274L168.477 86.6412C169.183 86.7232 169.872 86.879 170.536 87.1086L171.873 85.854L175.498 88.437L174.752 90.1098C175.195 90.6592 175.564 91.2578 175.868 91.8974L177.697 91.9548L178.435 96.3418L176.721 96.9978C176.639 97.703 176.483 98.3918 176.245 99.056L177.5 100.393L174.916 104.017L173.243 103.271C172.693 103.714 172.094 104.083 171.455 104.386L171.397 106.215L167.025 106.953ZM164.138 103.869L164.368 103.96C165.114 104.247 165.893 104.419 166.689 104.493L166.935 104.517L167.534 106.083L170.659 105.559L170.708 103.886L170.93 103.787C171.66 103.459 172.341 103.041 172.948 102.525L173.136 102.369L174.67 103.049L176.507 100.466L175.359 99.2446L175.449 99.015C175.736 98.2688 175.917 97.4898 175.982 96.6944L176.007 96.4484L177.574 95.8498L177.049 92.7256L175.375 92.6764L175.277 92.455C174.949 91.7252 174.522 91.0446 174.014 90.4378L173.858 90.2492L174.539 88.7158L171.955 86.879L170.733 88.027L170.503 87.9368C169.757 87.6498 168.978 87.4776 168.182 87.4038L167.936 87.3792L167.337 85.813L164.212 86.3378L164.155 88.0106L163.933 88.109C163.203 88.437 162.522 88.8552 161.915 89.3718L161.727 89.5276L160.193 88.847L158.355 91.43L159.504 92.6518L159.414 92.8814C159.126 93.6194 158.954 94.4066 158.88 95.202L158.856 95.448L157.289 96.0466L157.814 99.1708L159.487 99.22L159.586 99.4414C159.914 100.171 160.34 100.852 160.849 101.459L161.005 101.647L160.324 103.181L162.908 105.017L164.138 103.869ZM167.419 100.999C166.402 100.999 165.377 100.696 164.491 100.065C162.219 98.4492 161.686 95.284 163.301 93.0044C164.917 90.733 168.083 90.2 170.356 91.8154C172.628 93.4308 173.161 96.596 171.545 98.8674C170.569 100.261 169.002 100.999 167.419 100.999ZM167.436 91.6596C166.099 91.6596 164.778 92.2828 163.941 93.4554C163.277 94.3902 163.014 95.5218 163.211 96.6452C163.4 97.7686 164.015 98.7608 164.95 99.4168C166.87 100.786 169.552 100.335 170.922 98.4082C171.586 97.4816 171.84 96.3418 171.652 95.2184C171.463 94.095 170.848 93.1028 169.913 92.4468C169.158 91.922 168.289 91.6596 167.436 91.6596Z" fill="#A1D4FF"/>
<path d="M64.6677 111.061C56.6211 111.061 50.0756 104.517 50.0756 96.473H50.8549C50.8549 104.091 57.0477 110.282 64.6677 110.282C72.2877 110.282 78.4805 104.091 78.4805 96.473C78.4805 88.8634 72.2877 82.6642 64.6677 82.6642V81.8852C72.7142 81.8852 79.2597 88.4288 79.2597 96.473C79.2597 104.517 72.7142 111.061 64.6677 111.061ZM64.6677 109.035C57.7367 109.035 52.1016 103.402 52.1016 96.473C52.1016 89.544 57.7367 83.9106 64.6677 83.9106C71.5987 83.9106 77.2338 89.544 77.2338 96.473H76.4463C76.4463 89.9786 71.164 84.6896 64.6595 84.6896C58.1632 84.6896 52.8726 89.9704 52.8726 96.473C52.8726 102.967 58.155 108.256 64.6595 108.256V109.035H64.6677Z" fill="#78C2FF"/>
<path d="M62.8796 101.303L57.6136 96.0466L58.1632 95.489L62.8796 100.204L71.164 91.9138L71.7135 92.4714L62.8796 101.303Z" fill="#78C2FF"/>
<path d="M372.873 275.364H262.009H151.146L126.883 366.032H262.731H397.135L372.873 275.364Z" fill="url(#paint11_linear_4_1676)"/>
<path d="M159.528 291.272H173.153C173.719 291.272 174.153 291.715 174.047 292.191L172.726 298.111C172.644 298.48 172.267 298.742 171.832 298.742H157.978C157.396 298.742 156.961 298.283 157.092 297.799L158.643 291.879C158.741 291.526 159.102 291.272 159.528 291.272Z" fill="white"/>
<path d="M179.403 291.272H189.697L188.327 298.742H177.836L179.403 291.272Z" fill="white"/>
<path d="M194.848 291.272H205.15L204.067 298.742L193.577 298.759L194.848 291.272Z" fill="white"/>
<path d="M210.301 291.272H220.595L219.816 298.742H209.317L210.301 291.272Z" fill="white"/>
<path d="M225.746 291.272H236.049L235.556 298.742H225.057L225.746 291.272Z" fill="white"/>
<path d="M241.191 291.272H251.494L251.297 298.742L240.806 298.759L241.191 291.272Z" fill="white"/>
<path d="M364.818 291.272H349.365L351.03 298.742H366.77L364.818 291.272Z" fill="white"/>
<path d="M344.214 291.272H333.92L335.289 298.742H345.78L344.214 291.272Z" fill="white"/>
<path d="M328.768 291.272H318.466L319.549 298.742L330.04 298.759L328.768 291.272Z" fill="white"/>
<path d="M313.323 291.272H303.021L303.8 298.742H314.299L313.323 291.272Z" fill="white"/>
<path d="M297.87 291.272H287.576L288.06 298.742H298.559L297.87 291.272Z" fill="white"/>
<path d="M282.425 291.272H272.123L272.32 298.742L282.819 298.759L282.425 291.272Z" fill="white"/>
<path d="M256.645 291.272H266.939L267.111 298.742H256.645V291.272Z" fill="white"/>
<path d="M155.001 304.318H176.524L175.293 312.026H153.368L155.001 304.318Z" fill="white"/>
<path d="M368.173 304.318H341.572L343.09 312.026H370.191L368.173 304.318Z" fill="white"/>
<path d="M336.249 304.318H325.611L326.824 312.026H337.668L336.249 304.318Z" fill="white"/>
<path d="M320.295 304.318H309.649L310.559 312.026H321.403L320.295 304.318Z" fill="white"/>
<path d="M304.334 304.318H293.687L294.294 312.026H305.137L304.334 304.318Z" fill="white"/>
<path d="M288.372 304.318H277.733L278.028 312.026H288.872L288.372 304.318Z" fill="white"/>
<path d="M151.785 318.062H173.784L172.185 325.712H149.776L151.785 318.062Z" fill="white"/>
<path d="M179.288 318.062H190.287L188.983 325.712H177.779L179.288 318.062Z" fill="white"/>
<path d="M195.791 318.062H206.791H278.283L278.594 325.712H194.585L195.791 318.062Z" fill="white"/>
<path d="M283.795 318.062H294.794L295.393 325.712H284.197L283.795 318.062Z" fill="white"/>
<path d="M300.298 318.062H311.297L312.2 325.712H300.995L300.298 318.062Z" fill="white"/>
<path d="M316.793 318.062H327.792L328.998 325.712H317.802L316.793 318.062Z" fill="white"/>
<path d="M333.296 318.062H344.296L345.805 325.712H334.6L333.296 318.062Z" fill="white"/>
<path d="M349.799 318.062H371.798L373.808 325.712H351.399L349.799 318.062Z" fill="white"/>
<path d="M272.434 304.318H261.878V312.026H272.631L272.434 304.318Z" fill="white"/>
<path d="M256.473 304.318H245.834L245.531 312.026H256.366L256.473 304.318Z" fill="white"/>
<path d="M240.511 304.318H229.872L229.265 312.026H240.109L240.511 304.318Z" fill="white"/>
<path d="M224.549 304.318H213.91L213 312.026H223.843L224.549 304.318Z" fill="white"/>
<path d="M208.587 304.318H197.948L196.734 312.026H207.578L208.587 304.318Z" fill="white"/>
<path d="M192.625 304.318H181.987L180.469 312.026H191.313L192.625 304.318Z" fill="white"/>
<path d="M160.037 286.574L161.784 279.899H166.779L165.155 286.574H160.037Z" fill="white"/>
<path d="M171.783 279.899H181.781L180.387 286.574H170.208L171.783 279.899Z" fill="white"/>
<path d="M186.785 279.899H196.784L195.652 286.574H185.473L186.785 279.899Z" fill="white"/>
<path d="M201.787 279.899H211.786L210.916 286.574H200.737L201.787 279.899Z" fill="white"/>
<path d="M216.789 279.899H226.788L226.173 286.574H216.002L216.789 279.899Z" fill="white"/>
<path d="M231.791 279.899H241.79L241.438 286.574H231.267L231.791 279.899Z" fill="white"/>
<path d="M246.794 279.899H256.792L256.702 286.574H246.531L246.794 279.899Z" fill="white"/>
<path d="M261.788 279.899H271.795L271.967 286.574H261.788V279.899Z" fill="white"/>
<path d="M276.79 279.899H286.797L287.232 286.574H277.052L276.79 279.899Z" fill="white"/>
<path d="M291.792 279.899H301.799L302.496 286.574H292.317L291.792 279.899Z" fill="white"/>
<path d="M306.794 279.899H316.793L317.761 286.574H307.582L306.794 279.899Z" fill="white"/>
<path d="M321.796 279.899H331.795L333.025 286.574H322.846L321.796 279.899Z" fill="white"/>
<path d="M336.799 279.899H346.797L348.282 286.574H338.111L336.799 279.899Z" fill="white"/>
<path d="M351.801 279.899H361.799L363.547 286.574H353.376L351.801 279.899Z" fill="white"/>
<path d="M390.073 373.092H133.937C130.041 373.092 126.875 369.935 126.875 366.032H397.135C397.135 369.927 393.977 373.092 390.073 373.092Z" fill="url(#paint12_linear_4_1676)"/>
<path d="M293.424 336.733C293.162 335.134 291.784 333.97 290.16 333.97H262.009H233.85C232.234 333.97 230.848 335.142 230.586 336.733L227.067 358.012C226.731 360.029 228.289 361.858 230.331 361.858H262.001H293.67C295.713 361.858 297.263 360.029 296.935 358.012L293.424 336.733Z" fill="#4D78EB"/>
<path d="M195.717 153.594H172.8V155.939H195.717V153.594Z" fill="#E0E0E0"/>
<path d="M218.676 171.257H202.132V173.602H218.676V171.257Z" fill="#E0E0E0"/>
<path d="M232.243 171.257H221.26V173.602H232.243V171.257Z" fill="#1487E3"/>
<path d="M184.045 215.685H173.062V218.03H184.045V215.685Z" fill="#1487E3"/>
<path d="M260.918 171.257H234.408V173.602H260.918V171.257Z" fill="#E0E0E0"/>
<path d="M190.099 206.788H173.062V209.133H190.099V206.788Z" fill="#E0E0E0"/>
<path d="M207.209 224.516H196.808V226.861H207.209V224.516Z" fill="#E0E0E0"/>
<path d="M193.667 224.516H173.062V226.861H193.667V224.516Z" fill="#1487E3"/>
<path d="M184.431 233.347H173.062V235.693H184.431V233.347Z" fill="#E0E0E0"/>
<path d="M216.453 153.594H200.179V155.939H216.453V153.594Z" fill="#78C2FF"/>
<path d="M216.453 180.088H200.179V182.434H216.453V180.088Z" fill="#1487E3"/>
<path d="M198.998 188.928H192.043V191.273H198.998V188.928Z" fill="#E0E0E0"/>
<path d="M200.704 197.891H185.087V200.236H200.704V197.891Z" fill="#78C2FF"/>
<path d="M224.623 197.891H203.067V200.236H224.623V197.891Z" fill="#1487E3"/>
<path d="M189.336 188.994H173.062V191.339H189.336V188.994Z" fill="#1487E3"/>
<path d="M182.717 197.891H173.062V200.236H182.717V197.891Z" fill="#1487E3"/>
<path d="M211.376 188.994H202.271V191.339H211.376V188.994Z" fill="#FF8761"/>
<path d="M182.438 242.187H173.333V244.532H182.438V242.187Z" fill="#FF8761"/>
<path d="M189.27 171.257H172.997V173.602H189.27V171.257Z" fill="#78C2FF"/>
<path d="M203.657 215.685H187.384V218.03H203.657V215.685Z" fill="#78C2FF"/>
<path d="M203.854 233.347H187.581V235.693H203.854V233.347Z" fill="#78C2FF"/>
<path d="M232.759 233.347H216.486V235.693H232.759V233.347Z" fill="#78C2FF"/>
<path d="M196.193 180.088H172.997V182.434H196.193V180.088Z" fill="#78C2FF"/>
<path d="M297.952 153.594H281.678V155.939H297.952V153.594Z" fill="#78C2FF"/>
<path d="M239.994 242.187H223.72V244.532H239.994V242.187Z" fill="#78C2FF"/>
<path d="M313.906 153.594H303.013V155.939H313.906V153.594Z" fill="#78C2FF"/>
<path d="M350.759 162.426H339.866V164.771H350.759V162.426Z" fill="#78C2FF"/>
<path d="M241.552 153.594H220.825V155.939H241.552V153.594Z" fill="#1487E3"/>
<path d="M322.33 162.426H301.602V164.771H322.33V162.426Z" fill="#1487E3"/>
<path d="M296.902 171.257H276.175V173.602H296.902V171.257Z" fill="#1487E3"/>
<path d="M269.916 180.088H249.189V182.434H269.916V180.088Z" fill="#1487E3"/>
<path d="M314.25 171.257H299.51V173.602H314.25V171.257Z" fill="#78C2FF"/>
<path d="M277.618 153.594H256.891V155.939H277.618V153.594Z" fill="#FF8761"/>
<path d="M245.391 180.088H233.235V182.434H245.391V180.088Z" fill="#FF8761"/>
<path d="M235.876 215.816H223.72V218.161H235.876V215.816Z" fill="#FF8761"/>
<path d="M252.978 153.594H245.391V155.939H252.978V153.594Z" fill="#E0E0E0"/>
<path d="M228.412 180.088H220.825V182.434H228.412V180.088Z" fill="#E0E0E0"/>
<path d="M334.912 162.426H327.325V164.771H334.912V162.426Z" fill="#E0E0E0"/>
<path d="M184.669 162.426H172.8V164.771H184.669V162.426Z" fill="#1487E3"/>
<path d="M213.845 206.853H204.469V209.198H213.845V206.853Z" fill="#1487E3"/>
<path d="M191.411 162.426H187.581V164.771H191.411V162.426Z" fill="#1487E3"/>
<path d="M297.952 162.426H266.274V164.771H297.952V162.426Z" fill="#E0E0E0"/>
<path d="M267.554 233.347H235.876V235.693H267.554V233.347Z" fill="#E0E0E0"/>
<path d="M198.145 162.426H194.233V164.771H198.145V162.426Z" fill="#FF8761"/>
<path d="M263.346 162.426H252.978V164.771H263.346V162.426Z" fill="#1487E3"/>
<path d="M273.714 171.257H263.346V173.602H273.714V171.257Z" fill="#FF8761"/>
<path d="M220.415 242.187H210.047V244.532H220.415V242.187Z" fill="#FF8761"/>
<path d="M250.239 162.426H228.182V164.771H250.239V162.426Z" fill="#1487E3"/>
<path d="M220.538 215.816H207.652V218.161H220.538V215.816Z" fill="#1487E3"/>
<path d="M213.27 233.347H206.823V235.693H213.27V233.347Z" fill="#1487E3"/>
<path d="M225.049 162.426H217.462V164.771H225.049V162.426Z" fill="#78C2FF"/>
<path d="M199.515 171.257H191.928V173.602H199.515V171.257Z" fill="#FF8761"/>
<path d="M201.024 206.853H193.437V209.198H201.024V206.853Z" fill="#FF8761"/>
<path d="M214.575 162.426H201.352V164.771H214.575V162.426Z" fill="#1487E3"/>
<g opacity="0.76">
<path d="M394.929 256.053H299.051C297.23 256.053 295.762 254.577 295.762 252.765V186.32C295.762 184.5 297.238 183.032 299.051 183.032H394.921C396.742 183.032 398.21 184.508 398.21 186.32V252.765C398.218 254.577 396.75 256.053 394.929 256.053Z" fill="white"/>
</g>
<path d="M387.153 225.68H370.65C369.953 225.68 369.387 225.115 369.387 224.418V221.867C369.387 221.17 369.953 220.605 370.65 220.605H387.153C387.85 220.605 388.416 221.17 388.416 221.867V224.418C388.416 225.123 387.858 225.68 387.153 225.68Z" fill="#4AAFFF"/>
<path d="M387.153 235.184H370.65C369.953 235.184 369.387 234.618 369.387 233.921V231.371C369.387 230.674 369.953 230.108 370.65 230.108H387.153C387.85 230.108 388.416 230.674 388.416 231.371V233.921C388.416 234.618 387.858 235.184 387.153 235.184Z" fill="#4AAFFF"/>
<path d="M387.153 244.688H370.65C369.953 244.688 369.387 244.122 369.387 243.425V240.875C369.387 240.178 369.953 239.612 370.65 239.612H387.153C387.85 239.612 388.416 240.178 388.416 240.875V243.425C388.416 244.122 387.858 244.688 387.153 244.688Z" fill="#4AAFFF"/>
<path d="M360.184 209.289C355.951 197.456 344.632 190.183 332.706 190.543C329.818 190.634 326.898 191.167 324.027 192.192C315.341 195.299 309.116 202.212 306.556 210.387C304.785 216.054 304.768 222.318 306.925 228.337C307.139 228.936 307.368 229.526 307.623 230.1C308.755 232.708 310.239 235.061 312.003 237.136C319.401 245.836 331.68 249.51 343.073 245.434C357.789 240.178 365.441 223.991 360.184 209.289ZM340.695 238.768C332.156 241.818 322.945 239.063 317.4 232.544C316.079 230.994 314.964 229.223 314.111 227.263C313.922 226.828 313.75 226.394 313.586 225.943C311.97 221.433 311.978 216.734 313.307 212.487C315.226 206.361 319.893 201.171 326.406 198.842C328.555 198.071 330.745 197.669 332.911 197.604C341.851 197.333 350.333 202.786 353.507 211.658C357.46 222.696 351.719 234.832 340.695 238.768Z" fill="#4AAFFF"/>
<path d="M313.315 212.495L306.556 210.387C309.115 202.212 315.341 195.299 324.027 192.192C326.898 191.167 329.818 190.634 332.706 190.543L332.919 197.62C330.753 197.686 328.563 198.087 326.414 198.858C319.902 201.179 315.234 206.369 313.315 212.495Z" fill="#1A598C"/>
<path d="M314.111 227.271L307.623 230.092C307.377 229.518 307.139 228.928 306.925 228.329C304.776 222.31 304.785 216.045 306.556 210.379L313.315 212.487C311.986 216.734 311.978 221.433 313.594 225.943C313.75 226.402 313.922 226.837 314.111 227.271Z" fill="#2273B5"/>
<path d="M312.003 237.136C310.239 235.061 308.755 232.708 307.623 230.1L314.111 227.279C314.956 229.231 316.071 231.002 317.4 232.56L312.003 237.136Z" fill="#3788CC"/>
<path d="M342.991 235.578C342.991 235.578 341.622 233.183 343.795 226.755C345.895 220.539 353.171 221.105 355.484 225.082C357.797 229.059 357.017 231.535 353.613 236.029C350.209 240.531 344.41 237.636 342.991 235.578Z" fill="#EEA886"/>
<path d="M359.888 346.089C359.888 346.089 360.249 348.73 360.29 349.123C360.331 349.517 364.293 348.885 364.293 348.885L364.613 345.745C364.621 345.745 360.38 345.712 359.888 346.089Z" fill="#EEA886"/>
<path d="M360.249 348.787C360.249 348.787 358.994 350.378 357.78 351.067C356.566 351.764 354.663 352.034 353.942 352.748C353.425 353.264 352.055 355.495 357.091 355.445C362.128 355.404 364.555 355.757 365.097 354.904C365.638 354.051 364.318 348.598 364.318 348.598C364.318 348.598 363.095 348.951 360.249 348.787Z" fill="#414773"/>
<path d="M332.476 346.089C332.476 346.089 332.837 348.73 332.878 349.123C332.919 349.517 336.881 348.885 336.881 348.885L337.201 345.745C337.209 345.745 332.976 345.712 332.476 346.089Z" fill="#EEA886"/>
<path d="M332.845 348.787C332.845 348.787 331.59 350.378 330.376 351.067C329.162 351.764 324.7 352.329 323.978 353.043C323.462 353.559 322.6 355.642 329.687 355.445C334.723 355.306 337.151 355.757 337.693 354.904C338.234 354.051 336.913 348.598 336.913 348.598C336.913 348.598 335.347 348.885 332.845 348.787Z" fill="#414773"/>
<path d="M358.551 280.407C358.551 280.407 360.577 286.713 360.315 292.15C360.044 297.586 361.365 303.531 361.906 309.206C362.505 315.536 364.966 330.517 365.048 333.904C365.138 337.291 364.67 348.098 364.67 348.098L359.757 348.213C359.757 348.213 355.631 322.022 354.557 319.349C353.49 316.676 348.183 297.627 348.003 295.487C347.823 293.347 358.551 280.407 358.551 280.407Z" fill="#2D314F"/>
<path d="M338.177 279.751C338.177 279.751 335.191 296.422 334.838 299.751C334.485 303.08 334.248 315.848 334.067 317.922C333.887 319.997 332.878 345.122 331.926 348.213H337.406C337.406 348.213 343.032 329.952 343.032 321.309C343.032 312.666 346.756 302.523 349.168 296.824C351.571 291.125 357.083 290.985 358.56 280.407C358.551 280.407 340.178 276.397 338.177 279.751Z" fill="#2D314F"/>
<path d="M344.985 237.275C344.985 237.275 345.6 239.071 344.985 240.358C344.369 241.638 352.884 240.875 352.884 240.875C352.884 240.875 352.498 238.218 353.614 236.037C354.721 233.856 344.985 237.275 344.985 237.275Z" fill="#EEA886"/>
<path d="M358.953 281.777C358.953 281.777 355.886 284.925 337.898 281.285L338.168 279.743L358.617 280.514L358.953 281.777Z" fill="#2B3B57"/>
<path d="M343.697 240.777C343.697 240.777 340.547 241.096 339.653 241.269C338.751 241.441 332.706 240.186 331.459 240.055C330.22 239.924 324.922 236.299 324.749 235.873C324.577 235.447 321.526 227.73 321.362 226.058C321.189 224.385 318.392 225.246 318.63 226.402C319.081 228.55 319.656 233.774 319.975 235.291C320.32 236.923 321.23 240.629 321.747 241.08C322.264 241.539 327.03 245.155 331.689 246.697C336.356 248.239 339.866 250.51 339.866 250.51H362.866C362.866 250.51 371.806 237.726 372.003 235.799C372.192 233.872 365.753 221.072 364.473 219.465C363.186 217.858 361.332 219.99 361.332 219.99C361.332 219.99 365.179 231.281 365.696 232.88C366.212 234.487 361.217 241.539 359.847 241.556C358.478 241.58 354.959 241.129 353.4 241.064C351.834 240.998 350.185 240.317 350.185 240.317L343.697 240.777Z" fill="#EEA886"/>
<path d="M333.78 249.313C333.78 249.313 336.594 251.182 336.856 254.397C337.11 257.611 338.144 262.679 338.652 264.409C339.169 266.139 338.201 278.726 338.07 279.62C337.939 280.522 355.861 282.654 358.617 280.522C358.617 280.522 359.388 268.771 359.708 265.434C360.028 262.097 361.57 254.011 362.087 252.921C362.603 251.83 368.829 243.097 369.083 241.941C369.083 241.941 365.86 236.808 363.547 236.742C363.547 236.742 359.872 241.047 358.683 241.236C357.485 241.424 350.152 240.088 350.144 240.071C350.144 240.071 349.34 241.162 345.083 239.875C345.083 239.875 340.014 240.449 339.185 240.555C338.185 240.686 331.246 239.686 331.246 239.686C331.246 239.686 328.457 244.385 328.949 246.763L333.78 249.313Z" fill="#FFC655"/>
<path d="M321.518 227.066C321.518 227.066 320.886 224.09 321.649 223.237C322.083 222.753 323.117 221.466 323.207 221.277C323.306 221.088 324.413 220.449 324.413 220.145C324.413 219.842 323.322 219.457 322.379 220.334C321.435 221.211 320.845 221.4 320.468 221.302C320.09 221.203 319.549 218.063 319.5 217.284C319.451 216.505 319.155 214.446 318.663 214.586C318.179 214.725 318.196 215.627 318.196 215.627C318.196 215.627 317.63 214.069 317.252 214.373C316.875 214.676 316.924 215.439 316.924 215.439C316.924 215.439 316.211 214.561 316.022 215.201C315.833 215.84 316.022 216.406 316.022 216.406C316.022 216.406 315.292 216.004 315.243 216.997C315.193 217.989 315.456 220.9 315.973 221.941C316.489 222.983 318.442 225.705 318.671 226.763C318.901 227.821 321.518 227.066 321.518 227.066Z" fill="#EEA886"/>
<path d="M361.947 221.843C361.947 221.843 359.806 218.251 359.076 217.923C358.346 217.603 357.321 217.423 356.419 216.775C355.516 216.136 354.335 215.603 354.393 215.381C354.458 215.168 355.516 215.25 356.648 215.742C357.78 216.234 358.281 215.996 358.387 215.742C358.494 215.488 357.78 213.676 357.444 213.241C357.099 212.815 354.663 210.363 355.065 209.994C355.475 209.633 357.058 210.978 357.313 211.257C357.313 211.257 356.05 208.608 356.542 208.477C357.034 208.346 357.953 209.289 357.953 209.289C357.953 209.289 357.846 207.017 360.282 210.699C360.282 210.699 359.765 209.477 360.52 209.887C361.266 210.297 361.996 212.585 362.234 213.741C362.472 214.897 363.538 218.579 364.449 219.465C365.376 220.367 361.947 221.843 361.947 221.843Z" fill="#EEA886"/>
<path d="M353.613 236.037C353.613 236.037 352.49 236.135 350.086 235.307C347.691 234.479 347.511 230.289 346.994 230.789C345.936 231.806 344.935 231.101 344.533 230.502C344.533 230.502 345.706 228.96 345.165 228.222C344.624 227.484 343.738 226.943 343.738 226.943C343.738 226.943 345.428 218.817 353.097 222.523C362.087 226.853 353.613 236.037 353.613 236.037Z" fill="#353A3D"/>
<path d="M344.985 240.358L345.255 239.186C345.255 239.186 350.152 239.087 352.826 239.473L353.105 240.875C353.105 240.875 349.685 242.425 344.985 240.358Z" fill="#D4D8E8"/>
<path d="M346.19 229.764C346.633 229.026 348.282 228.526 348.471 230.617C348.618 232.24 345.534 234.012 345.501 232.503C345.477 230.986 345.895 230.248 346.19 229.764Z" fill="#EEA886"/>
<path d="M321.403 226.386C321.403 226.386 319.639 226.427 318.778 227.206C318.778 227.206 318.72 227.698 318.917 228.083C318.917 228.083 320.451 227.37 321.624 227.238C321.632 227.238 321.608 226.591 321.403 226.386Z" fill="#E55353"/>
<path d="M319.319 226.828C319.155 227.214 319.336 227.657 319.721 227.821C320.107 227.985 320.55 227.804 320.714 227.419C320.878 227.033 320.697 226.591 320.312 226.427C319.926 226.263 319.483 226.443 319.319 226.828Z" fill="#353A3D"/>
<path d="M275.92 164.049C275.92 164.049 278.447 168.33 279.513 169.027C280.965 169.978 280.054 170.937 279.365 170.937C278.676 170.937 275.166 171.191 274.395 170.314C273.624 169.437 273.238 166.804 272.516 166.116C271.795 165.427 271.056 162.696 272.869 162.032C274.469 161.442 275.92 164.049 275.92 164.049Z" fill="#6069A8"/>
<path d="M274.829 162.171C274.829 162.171 277.725 167.182 278.217 167.928C278.717 168.666 277.282 168.666 276.388 168.313C275.494 167.961 273.255 164.369 272.935 163.713C272.549 162.934 272.869 162.04 272.869 162.04L274.829 162.171Z" fill="#202338"/>
<path d="M271.893 164.869L272.566 170.002L272.918 170.019L272.803 166.321L271.893 164.869Z" fill="#6069A8"/>
<path d="M250.87 164.049C250.87 164.049 253.397 168.33 254.463 169.027C255.915 169.978 255.004 170.937 254.315 170.937C253.626 170.937 250.116 171.191 249.345 170.314C248.574 169.437 248.188 166.804 247.466 166.116C246.744 165.427 245.982 162.622 247.819 162.032C249.435 161.507 250.87 164.049 250.87 164.049Z" fill="#6069A8"/>
<path d="M249.935 162.18C249.935 162.18 252.675 167.182 253.175 167.92C253.676 168.658 252.232 168.658 251.346 168.305C250.452 167.952 248.213 164.361 247.893 163.705C247.507 162.926 247.827 162.032 247.827 162.032L249.935 162.18Z" fill="#202338"/>
<path d="M246.851 164.869L247.515 170.002L247.868 170.019L247.762 166.321L246.851 164.869Z" fill="#6069A8"/>
<path d="M239.666 125.099L262.518 135.513C262.518 135.513 265.069 136.341 265.356 139.17C266.25 148.01 272.861 162.032 272.861 162.032C274.985 163.065 274.821 162.171 274.821 162.171C273.484 157.883 271.852 140.195 271.278 133.078C271.155 131.569 271.081 130.544 271.065 130.208C271.056 129.986 270.81 129.691 270.384 129.347C267.25 126.805 254.34 121.54 254.34 121.54C244.653 121.303 239.666 125.099 239.666 125.099Z" fill="#202338"/>
<path d="M235.36 129.568C236.065 135.743 244.883 135.038 244.883 135.038H255.57C255.57 135.038 252.765 141.286 251.674 146.55C250.526 152.143 247.811 162.032 247.811 162.032C247.811 162.032 247.991 162.368 249.919 162.18C249.919 162.18 258.31 145.46 261.517 141.261C262.206 140.359 264.191 135.448 264.527 132.52C264.642 131.536 264.568 130.774 264.207 130.462C263.838 130.15 262.985 129.568 261.845 128.847C258.499 126.739 252.683 123.484 249.443 122.762C245.104 121.786 238.247 119.958 238.247 119.958C238.247 119.958 234.654 123.394 235.36 129.568Z" fill="#202338"/>
<path d="M242.635 82C242.635 82 241.036 78.966 241.815 75.727C242.594 72.4962 245.596 69.2736 249.993 70.7496C254.389 72.2256 257.941 75.645 255.308 79.5892C252.675 83.5334 257.695 85.3128 256.415 87.1906C255.136 89.0684 255.619 91.0282 256.161 91.4628C256.702 91.8974 258.449 93.4554 258.252 95.3004C258.064 97.1454 249.73 89.9294 249.73 89.9294C249.73 89.9294 245.186 80.8192 242.635 82Z" fill="#464240"/>
<path d="M256.03 120.802C256.03 120.802 255.365 124.017 238.296 119.958C238.296 119.958 244.021 118.064 256.03 120.802Z" fill="#EB4747"/>
<path d="M238.099 120.86C237.837 121.368 237.566 121.868 237.304 122.377C243.546 122.557 249.779 122.738 256.021 122.926C255.037 119.622 255.357 115.144 255.529 111.75C255.742 107.6 258.031 104.714 257.785 100.524C259.015 100.721 259.229 100.762 260.467 100.95C258.572 95.5628 257.933 92.8978 252.06 90.8232C250.148 90.1508 248.894 90.0114 246.818 90.1836C240.019 90.7412 237.968 90.8232 234.621 96.9896C239.854 97.826 238.993 99.6956 240.576 104.903C241.347 107.436 242.159 110.265 241.741 112.947C241.347 115.571 238.099 118.457 238.099 120.86Z" fill="#325BB3"/>
<path d="M248.959 92.127C246.178 91.6022 246.769 90.0524 246.769 90.0524C246.769 90.0524 246.9 89.175 246.95 88.0762C246.966 87.7974 246.966 87.494 246.966 87.1906C246.966 86.7314 246.941 86.264 246.892 85.8212C246.662 83.9516 251.945 85.0668 251.945 85.0668C251.945 85.0668 251.641 88.847 252.371 89.9786C253.093 91.1102 251.74 92.6518 248.959 92.127Z" fill="#EEA886"/>
<path d="M243.644 90.0442C243.644 90.0442 249.263 96.5222 251.338 98.031C251.338 98.031 253.725 95.8744 252.256 90.1836C252.256 90.1836 249.541 88.8224 243.644 90.0442Z" fill="#EEA886"/>
<path d="M243.8 74.4396C243.8 74.4396 240.88 80.0566 243.775 85.3784C246.671 90.7002 252.355 83.0578 252.716 82.164C253.085 81.2702 255.029 76.2026 251.157 74.661C247.286 73.1194 244.628 72.9144 243.8 74.4396Z" fill="#EEA886"/>
<path d="M244.768 76.4322C244.768 76.4322 242.758 79.0644 242.52 81.016C242.52 81.016 241.725 77.3342 243.98 73.7918C246.236 70.2576 251.986 73.6196 252.757 75.0382C253.528 76.4486 255.783 77.695 251.994 83.7712C251.994 83.7794 245.178 79.0398 244.768 76.4322Z" fill="#464240"/>
<path d="M249.427 85.936C249.427 85.936 248.918 87.043 246.941 88.068C246.958 87.7892 246.958 87.4858 246.958 87.1824C246.966 87.1906 248.303 87.0266 249.427 85.936Z" fill="#A77860"/>
<path d="M219.955 115.809C219.955 115.809 218.569 116.424 217.913 116.145C217.257 115.866 216.24 115.809 215.92 115.809C215.493 115.809 214.148 115.333 214.173 115.85C214.197 116.374 216.355 116.743 216.798 116.907C217.24 117.071 215.477 118.039 215.313 118.474C215.149 118.908 217.134 121.729 218.258 120.925C219.381 120.122 219.988 118.515 220.218 118.408C220.448 118.31 221.063 117.859 221.063 117.859L219.955 115.809Z" fill="#EEA886"/>
<path d="M215.518 118.219C215.518 118.219 212.27 120.917 212.212 121.278C212.163 121.639 212.335 121.811 212.647 121.573C212.959 121.335 215.871 119.064 215.871 119.064C215.871 119.064 212.614 122.91 212.499 123.197C212.434 123.361 212.746 123.713 212.926 123.599C213.106 123.484 216.576 119.868 216.576 119.868C216.576 119.868 213.541 123.467 213.525 123.73C213.508 123.968 213.877 124.222 214.124 123.968C214.37 123.713 217.388 120.54 217.388 120.54C217.388 120.54 215.362 123.303 215.485 123.541C215.559 123.689 215.821 124 216.322 123.271C216.822 122.541 218.192 120.95 218.192 120.95L215.518 118.219Z" fill="#EEA886"/>
<path d="M254.455 135.038H244.883C244.883 135.038 236.065 135.743 235.36 129.568C234.654 123.394 238.263 119.966 238.263 119.966C238.263 119.966 242.922 121.204 246.991 122.188C249.025 121.754 251.477 121.475 254.348 121.549C254.348 121.549 271.59 127.248 271.073 130.241C271.065 130.241 263.855 126.387 254.455 135.038Z" fill="#FF7E55"/>
<path d="M248.229 124.345L266.479 124.074L257.26 128.756L248.229 124.345Z" fill="#5E5853"/>
<path d="M253.897 122.016C253.897 122.016 249.788 123.607 244.759 122.172L244.522 120.294L254.881 120.868L253.897 122.016Z" fill="#325BB3"/>
<path d="M257.26 128.756L248.229 125.255V124.345L257.982 127.863L257.26 128.756Z" fill="#91887F"/>
<path d="M253.831 122.885C253.782 123.558 254.463 124.041 255.086 123.779L256.144 123.328C256.464 123.189 256.645 122.852 256.596 122.516C256.153 119.753 255.209 109.011 256.596 107.174C257.104 106.493 257.424 105.895 257.604 105.37C258.515 107.723 259.655 110.757 260.106 112.389L268.727 123.853L271.622 124.583C268.013 115.891 265.118 111.29 265.118 111.29C264.552 109.773 262.936 105.19 261.501 101.106C260.598 98.5312 259.762 96.1532 259.319 94.874C259.089 94.2262 258.646 93.6768 258.056 93.3242C256.719 92.5288 254.496 91.266 252.478 90.2902C252.47 90.2902 252.462 90.282 252.453 90.282C252.388 90.2492 252.322 90.2164 252.256 90.1918C256.095 95.9974 254.594 112.389 253.84 122.869C253.831 122.869 253.831 122.877 253.831 122.885Z" fill="#EDDAD3"/>
<path d="M239.592 90.6756C238.362 90.8642 235.319 93.8244 233.694 96.8092C231.849 100.22 229.971 104.099 228.56 105.37C225.968 107.715 218.717 116.014 218.372 115.809C218.241 115.735 220.357 118.285 220.628 118.408C220.759 118.465 232.554 108.256 233.678 106.698C234.753 105.222 237.623 99.0314 238.485 99.1708C238.485 99.1708 238.485 99.1708 238.485 99.179C238.55 99.3184 239.592 101.582 240.584 104.894C240.601 104.952 240.617 105.001 240.634 105.058C241.314 107.363 241.249 109.872 240.88 112.684C240.601 114.808 239.018 118.285 238.058 119.974C237.943 120.179 237.976 120.565 238.099 120.86C238.173 121.032 238.28 121.18 238.411 121.229L241.872 122.508L242.684 122.811C243.267 123.025 243.882 122.918 244.341 122.582C244.718 122.311 244.989 121.885 245.055 121.376C245.826 115.456 246.794 109.413 247.573 107.133C250.977 97.1372 246.244 89.6342 246.244 89.6342C246.244 89.6342 240.666 90.2738 239.592 90.6756Z" fill="#EDDAD3"/>
<path d="M257.26 128.756L262.69 113.939L280.194 114.218L275.018 127.879L257.26 128.756Z" fill="#6E6760"/>
<path d="M268.292 120.491C267.759 121.557 267.923 122.721 268.653 123.09C269.383 123.459 270.417 122.885 270.95 121.819C271.483 120.753 271.327 119.589 270.589 119.22C269.851 118.851 268.825 119.425 268.292 120.491Z" fill="#807066"/>
<path d="M249.845 80.032C249.845 80.032 250.969 81.7786 249.927 83.2792C248.894 84.7798 250.189 86.264 250.411 87.8548C250.632 89.4456 246.088 93.6768 251.149 95.8088C256.21 97.9408 257.818 94.4148 256.522 92.4796C255.234 90.5444 254.315 88.97 254.209 86.2066C254.102 83.4514 253.192 79.1464 249.845 80.032Z" fill="#464240"/>
<path d="M213.205 59.1138H234.761V74.7348V78.023L231.472 74.7348H213.205V59.1138Z" fill="#78C2FF"/>
</g>
<defs>
<linearGradient id="paint0_linear_4_1676" x1="144.375" y1="216.954" x2="390.798" y2="216.954" gradientUnits="userSpaceOnUse">
<stop stop-color="#40D5E6"/>
<stop offset="1" stop-color="#5577FF"/>
</linearGradient>
<linearGradient id="paint1_linear_4_1676" x1="158.907" y1="206.049" x2="364.648" y2="206.049" gradientUnits="userSpaceOnUse">
<stop stop-color="#404B61"/>
<stop offset="0.486" stop-color="#3C4860"/>
<stop offset="1" stop-color="#2F3E5C"/>
</linearGradient>
<linearGradient id="paint2_linear_4_1676" x1="430.409" y1="281.992" x2="483.345" y2="281.992" gradientUnits="userSpaceOnUse">
<stop stop-color="#3076A1"/>
<stop offset="1" stop-color="#639C38"/>
</linearGradient>
<linearGradient id="paint3_linear_4_1676" x1="425.81" y1="274.276" x2="494.927" y2="274.276" gradientUnits="userSpaceOnUse">
<stop stop-color="#3076A1"/>
<stop offset="1" stop-color="#639C38"/>
</linearGradient>
<linearGradient id="paint4_linear_4_1676" x1="409.93" y1="263.823" x2="454.513" y2="263.823" gradientUnits="userSpaceOnUse">
<stop stop-color="#3076A1"/>
<stop offset="1" stop-color="#639C38"/>
</linearGradient>
<linearGradient id="paint5_linear_4_1676" x1="422.322" y1="273.46" x2="435.839" y2="273.46" gradientUnits="userSpaceOnUse">
<stop stop-color="#3076A1"/>
<stop offset="1" stop-color="#639C38"/>
</linearGradient>
<linearGradient id="paint6_linear_4_1676" x1="391.729" y1="276.139" x2="435.367" y2="276.139" gradientUnits="userSpaceOnUse">
<stop stop-color="#3076A1"/>
<stop offset="1" stop-color="#639C38"/>
</linearGradient>
<linearGradient id="paint7_linear_4_1676" x1="420.947" y1="374.982" x2="457.642" y2="232.239" gradientUnits="userSpaceOnUse">
<stop stop-color="#3076A1"/>
<stop offset="1" stop-color="#639C38"/>
</linearGradient>
<linearGradient id="paint8_linear_4_1676" x1="434.293" y1="300.99" x2="450.425" y2="300.99" gradientUnits="userSpaceOnUse">
<stop stop-color="#3076A1"/>
<stop offset="1" stop-color="#639C38"/>
</linearGradient>
<linearGradient id="paint9_linear_4_1676" x1="420.44" y1="330.068" x2="450.265" y2="330.068" gradientUnits="userSpaceOnUse">
<stop stop-color="#FF9340"/>
<stop offset="1" stop-color="#FFCE45"/>
</linearGradient>
<linearGradient id="paint10_linear_4_1676" x1="420.44" y1="330.068" x2="450.265" y2="330.068" gradientUnits="userSpaceOnUse">
<stop stop-color="#C97332"/>
<stop offset="1" stop-color="#FFCE45"/>
</linearGradient>
<linearGradient id="paint11_linear_4_1676" x1="262.008" y1="266.601" x2="262.008" y2="403.194" gradientUnits="userSpaceOnUse">
<stop stop-color="#40D5E6"/>
<stop offset="1" stop-color="#5577FF"/>
</linearGradient>
<linearGradient id="paint12_linear_4_1676" x1="1.61922" y1="369.56" x2="271.876" y2="369.56" gradientUnits="userSpaceOnUse">
<stop stop-color="#40D5E6"/>
<stop offset="1" stop-color="#5577FF"/>
</linearGradient>
<clipPath id="clip0_4_1676">
<rect width="545" height="410" fill="white"/>
</clipPath>
</defs>
</svg>
