<svg width="94" height="92" viewBox="0 0 94 92" fill="none" xmlns="http://www.w3.org/2000/svg">
<g clip-path="url(#clip0_4_65)">
<path d="M53.3646 3.11345C53.3646 1.40335 55.0475 0 57.1512 0C59.2549 0 60.9378 1.38801 60.9378 3.11345V16.7175C60.9378 18.4276 59.2549 19.831 57.1512 19.831C55.0475 19.831 53.3646 18.4429 53.3646 16.7175V3.11345ZM10.9927 59.8533H19.6675C20.2183 59.8533 20.6696 60.3057 20.6696 60.8579V67.2842C20.6696 67.8363 20.2183 68.2887 19.6675 68.2887H10.9927C10.4419 68.2887 9.99056 67.8363 9.99056 67.2842V60.8579C9.99056 60.2981 10.4419 59.8533 10.9927 59.8533ZM44.2078 41.5407H52.8827C53.1504 41.5407 53.3875 41.6481 53.5711 41.8168C50.167 43.9487 47.2142 46.7247 44.8734 49.9838H44.2078C43.6571 49.9838 43.2057 49.5314 43.2057 48.9792V42.553C43.2057 41.9932 43.6571 41.5407 44.2078 41.5407ZM27.6003 41.5407H36.2751C36.8258 41.5407 37.2772 41.9932 37.2772 42.5453V48.9716C37.2772 49.5237 36.8258 49.9762 36.2751 49.9762H27.6003C27.0495 49.9762 26.5981 49.5237 26.5981 48.9716V42.5453C26.5981 41.9932 27.0495 41.5407 27.6003 41.5407ZM10.9927 41.5407H19.6675C20.2183 41.5407 20.6696 41.9932 20.6696 42.5453V48.9716C20.6696 49.5237 20.2183 49.9762 19.6675 49.9762H10.9927C10.4419 49.9762 9.99056 49.5237 9.99056 48.9716V42.5453C9.99056 41.9932 10.4419 41.5407 10.9927 41.5407ZM27.6003 59.8533H36.2751C36.8258 59.8533 37.2772 60.3057 37.2772 60.8579V67.2842C37.2772 67.8363 36.8258 68.2887 36.2751 68.2887H27.6003C27.0495 68.2887 26.5981 67.8363 26.5981 67.2842V60.8579C26.5981 60.2981 27.0495 59.8533 27.6003 59.8533ZM79.1672 45.6587C88.125 49.378 94 58.1432 94 67.913C94 74.5616 91.3073 80.5891 86.9622 84.9449C82.6172 89.3007 76.6121 92 69.9722 92C63.3398 92 57.3348 89.3007 52.9821 84.9449C48.637 80.5815 45.9443 74.5616 45.9443 67.913C45.9443 58.2199 51.957 49.1786 60.8996 45.4977C66.4456 43.2278 73.6593 43.3658 79.1672 45.6587ZM66.2773 67.2688C66.5757 66.9391 66.9429 66.6553 67.3407 66.4406V55.9653C67.3407 54.8994 68.2051 54.0328 69.2684 54.0328C70.3317 54.0328 71.2038 54.8994 71.2038 55.9653V66.4406C71.9076 66.824 72.4889 67.3992 72.8638 68.1047H80.3299C81.4009 68.1047 82.2577 68.9712 82.2577 70.0372C82.2577 71.1031 81.3932 71.9697 80.3299 71.9697H72.8638C72.1753 73.258 70.8289 74.1322 69.2684 74.1322C68.0444 74.1322 66.9505 73.5877 66.2009 72.7365C64.8162 71.1491 64.8851 68.7795 66.2773 67.2688ZM84.2389 53.9945C74.2866 44.0177 57.5031 46.8397 51.6816 59.4009C50.4883 61.9852 49.8151 64.8686 49.8151 67.9053C49.8151 73.488 52.0718 78.5416 55.7207 82.1996C59.3696 85.8575 64.4108 88.1197 69.9798 88.1197C75.5488 88.1197 80.59 85.8498 84.2389 82.1996C87.8879 78.5416 90.1445 73.488 90.1445 67.9053C90.1445 64.7382 89.4178 61.7398 88.125 59.0711C87.1382 57.0543 85.8224 55.5819 84.2389 53.9945ZM19.3768 3.11345C19.3768 1.40335 21.0597 0 23.1634 0C25.2594 0 26.95 1.38801 26.95 3.11345V16.7175C26.95 18.4276 25.2594 19.831 23.1634 19.831C21.0674 19.831 19.3768 18.4429 19.3768 16.7175V3.11345ZM4.16911 29.7464H76.2373V14.0872C76.2373 13.5504 76.0231 13.0826 75.6789 12.7375C75.3346 12.3924 74.8451 12.1777 74.3325 12.1777H67.4248C66.2697 12.1777 65.3288 11.2345 65.3288 10.0765C65.3288 8.91856 66.2697 7.97533 67.4248 7.97533H74.3325C76.0231 7.97533 77.5454 8.65783 78.6546 9.76978C79.7638 10.8817 80.4447 12.4078 80.4447 14.1025V38.9717C79.0677 38.4963 77.6525 38.1129 76.1914 37.8291V33.9412H76.2373H4.16911V74.5156C4.16911 75.0524 4.3833 75.5202 4.72754 75.8653C5.07178 76.2104 5.56136 76.4251 6.07389 76.4251H40.3218C40.7119 77.8821 41.2015 79.3085 41.7905 80.6735H6.11214C4.4292 80.6735 2.89925 79.991 1.79004 78.8791C0.680827 77.7594 0 76.2411 0 74.5463V14.1025C0 12.4154 0.680827 10.8894 1.79004 9.76978C2.89925 8.65783 4.42155 7.97533 6.11214 7.97533H13.4865C14.6416 7.97533 15.5825 8.91856 15.5825 10.0765C15.5825 11.2345 14.6416 12.1777 13.4865 12.1777H6.11214C5.57666 12.1777 5.11003 12.3924 4.76579 12.7375C4.42155 13.0826 4.20736 13.5734 4.20736 14.0872V29.7541H4.16911V29.7464ZM32.9933 12.17C31.8382 12.17 30.8973 11.2268 30.8973 10.0689C30.8973 8.91089 31.8382 7.96766 32.9933 7.96766H47.0612C48.2163 7.96766 49.1572 8.91089 49.1572 10.0689C49.1572 11.2268 48.2163 12.17 47.0612 12.17H32.9933Z" fill="#82A1FF"/>
</g>
<defs>
<clipPath id="clip0_4_65">
<rect width="94" height="92" fill="white"/>
</clipPath>
</defs>
</svg>
