<svg width="90" height="90" viewBox="0 0 90 90" fill="none" xmlns="http://www.w3.org/2000/svg">
<g clip-path="url(#clip0_4_133)">
<path d="M45 24.6774C37.7971 24.6774 31.9355 30.5376 31.9355 37.7419C31.9355 44.9463 37.7971 50.8065 45 50.8065C52.2029 50.8065 58.0645 44.9463 58.0645 37.7419C58.0645 30.5376 52.2029 24.6774 45 24.6774ZM45 39.1936C44.2002 39.1936 43.5484 38.5432 43.5484 37.7419C43.5484 36.9407 44.2002 36.2903 45 36.2903C45.7998 36.2903 46.4516 36.9407 46.4516 37.7419C46.4516 38.5432 45.7998 39.1936 45 39.1936ZM46.4516 47.7871V41.8297C48.1369 41.2287 49.3548 39.6319 49.3548 37.7419C49.3548 35.341 47.401 33.3871 45 33.3871C42.599 33.3871 40.6452 35.341 40.6452 37.7419C40.6452 39.6319 41.8631 41.2287 43.5484 41.8297V47.7871C38.6318 47.0787 34.8387 42.8502 34.8387 37.7419C34.8387 32.1402 39.3968 27.5807 45 27.5807C50.6032 27.5807 55.1613 32.1402 55.1613 37.7419C55.1613 42.8502 51.3682 47.0787 46.4516 47.7871Z" fill="#82A1FF"/>
<path d="M62.2306 45.4064C62.3656 45.1059 62.4919 44.8055 62.6081 44.5035L69.6774 43.3277V32.1576L62.6081 30.9803C62.3874 30.4098 62.1334 29.8393 61.8489 29.2747L59.2563 30.5811C59.6163 31.2939 59.9182 32.0168 60.1519 32.7266L60.4263 33.5584L66.7742 34.618V40.8672L60.4263 41.9255L60.1519 42.7572C59.9182 43.4656 59.6163 44.1885 59.2563 44.9027L58.8614 45.6866L62.6066 50.9284L58.1879 55.3485L52.9447 51.6034L52.1622 51.9968C51.4466 52.3568 50.7237 52.6587 50.0153 52.8924L49.1835 53.1668L48.1253 59.5161H41.8747L40.8164 53.1682L39.9847 52.8939C39.2748 52.6587 38.5519 52.3582 37.8392 51.9982L37.0553 51.6048L31.8121 55.35L26.5224 50.0603L24.4698 52.1129L31.5 59.1387L37.3355 54.9711C37.636 55.1061 37.9364 55.2324 38.2369 55.3485L39.4156 62.4193H50.5843L51.7631 55.3485C52.0635 55.2324 52.3655 55.1061 52.666 54.9711L58.5014 59.1387L66.3997 51.2434L62.2306 45.4064Z" fill="#82A1FF"/>
<path d="M20.3226 32.1561V43.3263L27.3919 44.5035C27.6126 45.074 27.8666 45.6445 28.1511 46.2092L30.7437 44.9027C30.3837 44.19 30.0818 43.4671 29.8481 42.7573L29.5737 41.9255L23.2258 40.8658V34.6166L29.5737 33.5584L29.8481 32.7266C30.0818 32.0182 30.3837 31.2953 30.7437 30.5811L31.1386 29.7973L27.3934 24.5555L31.8121 20.1353L37.0568 23.8805L37.8407 23.4856C38.5447 23.13 39.2661 22.8295 39.9847 22.5914L40.8165 22.3171L41.8747 15.9677H48.1253L49.1836 22.3156L50.0153 22.59C50.7324 22.8266 51.4539 23.1271 52.1608 23.4842L52.9447 23.879L58.1879 20.1339L63.4776 25.4235L65.5302 23.371L58.5 16.3423L52.6645 20.5113C52.364 20.3763 52.0636 20.2514 51.7616 20.1339L50.5844 13.0645H39.4157L38.2369 20.1339C37.935 20.2514 37.6331 20.3777 37.334 20.5113L31.4986 16.3423L23.6003 24.2405L27.7694 30.0774C27.6344 30.3779 27.5081 30.6784 27.3919 30.9803L20.3226 32.1561Z" fill="#82A1FF"/>
<path d="M46.4516 18.871H43.5484V21.7742H46.4516V18.871Z" fill="#82A1FF"/>
<path d="M32.6818 23.3715L30.6289 25.4244L32.6818 27.4772L34.7346 25.4244L32.6818 23.3715Z" fill="#82A1FF"/>
<path d="M29.0323 36.2903H26.129V39.1936H29.0323V36.2903Z" fill="#82A1FF"/>
<path d="M32.682 52.1104L34.7349 50.0575L32.682 48.0046L30.6292 50.0575L32.682 52.1104Z" fill="#82A1FF"/>
<path d="M46.4516 53.7097H43.5484V56.6129H46.4516V53.7097Z" fill="#82A1FF"/>
<path d="M57.3168 52.1109L59.3696 50.058L57.3168 48.0052L55.2639 50.058L57.3168 52.1109Z" fill="#82A1FF"/>
<path d="M63.871 36.2903H60.9677V39.1936H63.871V36.2903Z" fill="#82A1FF"/>
<path d="M57.3162 23.3724L55.2633 25.4252L57.3162 27.4781L59.3691 25.4252L57.3162 23.3724Z" fill="#82A1FF"/>
<path d="M45 81.2903C42.599 81.2903 40.6452 83.2442 40.6452 85.6452C40.6452 88.0462 42.599 90 45 90C47.401 90 49.3548 88.0462 49.3548 85.6452C49.3548 83.2442 47.401 81.2903 45 81.2903ZM45 87.0968C44.2002 87.0968 43.5484 86.4465 43.5484 85.6452C43.5484 84.8439 44.2002 84.1936 45 84.1936C45.7998 84.1936 46.4516 84.8439 46.4516 85.6452C46.4516 86.4465 45.7998 87.0968 45 87.0968Z" fill="#82A1FF"/>
<path d="M85.6452 81.2903C83.2442 81.2903 81.2903 83.2442 81.2903 85.6452C81.2903 88.0462 83.2442 90 85.6452 90C88.0461 90 90 88.0462 90 85.6452C90 83.2442 88.0461 81.2903 85.6452 81.2903ZM85.6452 87.0968C84.8453 87.0968 84.1935 86.4465 84.1935 85.6452C84.1935 84.8439 84.8453 84.1936 85.6452 84.1936C86.445 84.1936 87.0968 84.8439 87.0968 85.6452C87.0968 86.4465 86.445 87.0968 85.6452 87.0968Z" fill="#82A1FF"/>
<path d="M4.35484 81.2903C1.95387 81.2903 0 83.2442 0 85.6452C0 88.0462 1.95387 90 4.35484 90C6.75581 90 8.70968 88.0462 8.70968 85.6452C8.70968 83.2442 6.75581 81.2903 4.35484 81.2903ZM4.35484 87.0968C3.555 87.0968 2.90323 86.4465 2.90323 85.6452C2.90323 84.8439 3.555 84.1936 4.35484 84.1936C5.15468 84.1936 5.80645 84.8439 5.80645 85.6452C5.80645 86.4465 5.15468 87.0968 4.35484 87.0968Z" fill="#82A1FF"/>
<path d="M4.35484 66.7742C1.95387 66.7742 0 68.728 0 71.129C0 73.53 1.95387 75.4838 4.35484 75.4838C6.75581 75.4838 8.70968 73.53 8.70968 71.129C8.70968 68.728 6.75581 66.7742 4.35484 66.7742ZM4.35484 72.5806C3.555 72.5806 2.90323 71.9303 2.90323 71.129C2.90323 70.3277 3.555 69.6774 4.35484 69.6774C5.15468 69.6774 5.80645 70.3277 5.80645 71.129C5.80645 71.9303 5.15468 72.5806 4.35484 72.5806Z" fill="#82A1FF"/>
<path d="M46.4516 65.3226H43.5484V78.3871H46.4516V65.3226Z" fill="#82A1FF"/>
<path d="M27.5806 76.9355C27.5806 80.9376 24.3247 84.1935 20.3226 84.1935H11.6129V87.0968H20.3226C25.9258 87.0968 30.4839 82.5372 30.4839 76.9355V59.5161H27.5806V76.9355Z" fill="#82A1FF"/>
<path d="M18.871 68.2258C18.871 69.0271 18.2192 69.6774 17.4194 69.6774H11.6129V72.5806H17.4194C19.8203 72.5806 21.7742 70.6268 21.7742 68.2258V46.4516H18.871V68.2258Z" fill="#82A1FF"/>
<path d="M85.6452 66.7742C83.2442 66.7742 81.2903 68.728 81.2903 71.129C81.2903 73.53 83.2442 75.4838 85.6452 75.4838C88.0461 75.4838 90 73.53 90 71.129C90 68.728 88.0461 66.7742 85.6452 66.7742ZM85.6452 72.5806C84.8453 72.5806 84.1935 71.9303 84.1935 71.129C84.1935 70.3277 84.8453 69.6774 85.6452 69.6774C86.445 69.6774 87.0968 70.3277 87.0968 71.129C87.0968 71.9303 86.445 72.5806 85.6452 72.5806Z" fill="#82A1FF"/>
<path d="M62.4194 76.9355V59.5161H59.5161V76.9355C59.5161 82.5372 64.0742 87.0968 69.6774 87.0968H78.3871V84.1935H69.6774C65.6753 84.1935 62.4194 80.9376 62.4194 76.9355Z" fill="#82A1FF"/>
<path d="M71.129 68.2258V46.4516H68.2258V68.2258C68.2258 70.6268 70.1797 72.5806 72.5806 72.5806H78.3871V69.6774H72.5806C71.7808 69.6774 71.129 69.0271 71.129 68.2258Z" fill="#82A1FF"/>
<path d="M90 31.9355C90 25.5324 84.7902 20.3226 78.3871 20.3226C77.8732 20.3226 77.3681 20.3676 76.8673 20.4329C76.1937 13.8571 70.6224 8.70968 63.871 8.70968C62.3903 8.70968 60.9402 8.97097 59.5698 9.44855C57.0266 3.7321 51.3871 0 45 0C38.6129 0 32.9748 3.73355 30.4302 9.44855C29.0584 8.96952 27.6082 8.70968 26.129 8.70968C19.3805 8.70968 13.8121 13.8527 13.1342 20.4256C12.6334 20.3574 12.1253 20.3226 11.6129 20.3226C5.20984 20.3226 0 25.5324 0 31.9355C0 38.3385 5.20984 43.5484 11.6129 43.5484H17.4194V40.6452H11.6129C6.80952 40.6452 2.90323 36.7389 2.90323 31.9355C2.90323 27.1321 6.80952 23.2258 11.6129 23.2258C14.6976 23.2258 17.4905 24.8066 19.0829 27.4544L21.571 25.9577C20.266 23.7861 18.2874 22.1298 15.9968 21.1906C16.3016 15.8603 20.7232 11.6129 26.129 11.6129C28.6055 11.6129 30.9919 12.5144 32.8471 14.1503L34.7661 11.9729C34.2276 11.4982 33.6498 11.0773 33.0474 10.7013C35.1145 5.98645 39.7481 2.90323 45 2.90323C50.2548 2.90323 54.8898 5.98935 56.954 10.7085C55.8929 11.3705 54.916 12.1761 54.0711 13.1327L56.2471 15.0547C58.1792 12.8671 60.9576 11.6129 63.871 11.6129C69.2724 11.6129 73.6897 15.8531 74.0018 21.1776C72.6227 21.7394 71.3526 22.5697 70.2595 23.6424L72.2918 25.7153C73.9292 24.1084 76.0936 23.2258 78.3871 23.2258C83.1905 23.2258 87.0968 27.1321 87.0968 31.9355C87.0968 36.7389 83.1905 40.6452 78.3871 40.6452H72.5806V43.5484H78.3871C84.7902 43.5484 90 38.3385 90 31.9355Z" fill="#82A1FF"/>
</g>
<defs>
<clipPath id="clip0_4_133">
<rect width="90" height="90" fill="white"/>
</clipPath>
</defs>
</svg>
