<svg width="102" height="102" viewBox="0 0 102 102" fill="none" xmlns="http://www.w3.org/2000/svg">
<path fill-rule="evenodd" clip-rule="evenodd" d="M46.5032 79.0353H9.94037C4.46097 79.0353 0.0143433 74.5743 0.0143433 69.1236V32.5465C0.0143433 31.7576 0.631134 31.1408 1.42005 31.1408H14.4587C15.1329 26.5077 19.1349 22.936 23.9544 22.936C28.774 22.936 32.776 26.5077 33.4501 31.1408H46.5032C47.2777 31.1408 47.8945 31.7576 47.8945 32.5465V46.8761C47.8945 47.6507 47.2777 48.2675 46.5032 48.2675C42.7307 48.2675 39.6754 51.3371 39.6754 55.1096C39.6754 58.8677 42.7307 61.9373 46.5032 61.9373C47.2777 61.9373 47.8945 62.5541 47.8945 63.3287V77.644C47.8945 78.4042 47.2634 79.0353 46.5032 79.0353ZM2.78273 33.9379V69.1093C2.78273 73.0395 5.99578 76.2382 9.91168 76.2382H45.0831V64.6053C40.45 63.9311 36.864 59.9291 36.864 55.0809C36.864 50.2613 40.45 46.2593 45.0831 45.5708V33.9092H32.1448C31.3703 33.9092 30.7535 33.2924 30.7535 32.5178C30.7535 28.7597 27.6839 25.7044 23.9114 25.7044C20.1533 25.7044 17.1124 28.7597 17.1124 32.5178C17.1124 33.2924 16.4956 33.9092 15.7066 33.9092H2.78273V33.9379Z" fill="#82A1FF"/>
<path fill-rule="evenodd" clip-rule="evenodd" d="M40.1488 72.7096H9.94037C7.94655 72.7096 6.32568 71.0888 6.32568 69.1093V38.8865C6.32568 38.112 6.95682 37.4952 7.73139 37.4952C8.50597 37.4952 9.12276 38.112 9.12276 38.8865V69.1236C9.12276 69.554 9.4957 69.9412 9.94037 69.9412H40.1631C40.9377 69.9412 41.5545 70.558 41.5545 71.3326C41.5545 72.1072 40.9233 72.7096 40.1488 72.7096Z" fill="#82A1FF"/>
<path fill-rule="evenodd" clip-rule="evenodd" d="M93.4653 93.6949H63.0274C62.2528 93.6949 61.6361 93.0781 61.6361 92.3035V81.6316C57.7488 80.9718 54.8083 77.5866 54.8083 73.4986C54.8083 69.4392 57.7775 66.054 61.6361 65.3942V54.7223C61.6361 53.9477 62.2528 53.3309 63.0274 53.3309H74.9616C75.7362 53.3309 76.353 53.9477 76.353 54.7223C76.353 57.7345 78.8058 60.1587 81.7893 60.1587C84.7729 60.1587 87.2257 57.7058 87.2257 54.7223C87.2257 53.9477 87.8425 53.3309 88.6171 53.3309H100.566C101.34 53.3309 101.957 53.9477 101.957 54.7223V85.1746C101.957 89.8937 98.1558 93.6949 93.4653 93.6949ZM64.4188 90.9121H93.4797C96.621 90.9121 99.1742 88.3446 99.1742 85.1889V56.1567H89.908C89.2625 60.0439 85.8774 62.9844 81.7893 62.9844C77.7013 62.9844 74.3448 60.0152 73.6563 56.1567H64.4044V66.7139C64.4044 67.4884 63.7876 68.1052 63.0131 68.1052C60.0008 68.1052 57.5767 70.5437 57.5767 73.5416C57.5767 76.5538 60.0152 78.978 63.0131 78.978C63.7876 78.978 64.4044 79.5947 64.4044 80.3693V90.9121H64.4188Z" fill="#82A1FF"/>
<path fill-rule="evenodd" clip-rule="evenodd" d="M93.4653 88.4163H68.306C67.5314 88.4163 66.9146 87.7995 66.9146 87.0249C66.9146 86.2503 67.5314 85.6335 68.306 85.6335H93.4797C93.6948 85.6335 93.91 85.4184 93.91 85.1889V60.0439C93.91 59.2693 94.5268 58.6525 95.3157 58.6525C96.0903 58.6525 96.7071 59.2693 96.7071 60.0439V85.2176C96.7071 86.9819 95.244 88.4163 93.4653 88.4163Z" fill="#82A1FF"/>
<path fill-rule="evenodd" clip-rule="evenodd" d="M93.7379 48.6261H63.3143C58.6095 48.6261 54.8083 44.8106 54.8083 40.1345V9.69654C54.8083 8.92197 55.4251 8.30518 56.1997 8.30518H68.1482C68.9228 8.30518 69.5396 8.92197 69.5396 9.69654C69.5396 12.6801 71.9637 15.1329 74.9759 15.1329C77.9882 15.1329 80.4123 12.7088 80.4123 9.69654C80.4123 8.92197 81.0291 8.30518 81.8037 8.30518H93.7522C94.5268 8.30518 95.1579 8.92197 95.1579 9.69654V20.3541C99.0164 21.0139 101.986 24.3991 101.986 28.4728C101.986 32.5608 99.0308 35.9317 95.1579 36.6058V47.2634C95.1292 47.995 94.5124 48.6261 93.7379 48.6261ZM57.5767 11.0879V40.1345C57.5767 43.2758 60.1443 45.8434 63.2856 45.8434H92.3465V35.3149C92.3465 34.526 92.9633 33.9092 93.7379 33.9092C96.7214 33.9092 99.1742 31.4707 99.1742 28.4728C99.1742 25.4749 96.7501 23.0364 93.7379 23.0364C92.9633 23.0364 92.3465 22.4196 92.3465 21.6451V11.0879H83.0659C82.4061 14.9608 79.0209 17.93 74.9329 17.93C70.8736 17.93 67.5027 14.9751 66.8286 11.0879H57.5767Z" fill="#82A1FF"/>
<path fill-rule="evenodd" clip-rule="evenodd" d="M88.4593 43.3475H63.3143C61.5357 43.3475 60.0869 41.8987 60.0869 40.1057V14.9608C60.0869 14.1862 60.7037 13.5551 61.4783 13.5551C62.2529 13.5551 62.8696 14.1862 62.8696 14.9608V40.1344C62.8696 40.3639 63.0848 40.5791 63.3143 40.5791H88.4736C89.2626 40.5791 89.8793 41.1959 89.8793 41.9848C89.8793 42.7594 89.2339 43.3475 88.4593 43.3475Z" fill="#82A1FF"/>
</svg>
