<svg width="96" height="96" viewBox="0 0 96 96" fill="none" xmlns="http://www.w3.org/2000/svg">
<g clip-path="url(#clip0_4_80)">
<path fill-rule="evenodd" clip-rule="evenodd" d="M67.6875 67.3125C66.1875 67.3125 64.5 66.9375 63 66.5625C58.3125 65.4375 54.375 62.4375 51.9375 58.125C46.875 49.5 49.875 38.4375 58.6875 33.375C67.3125 28.3125 78.375 31.3125 83.4375 39.9375C88.5 48.5625 85.5 59.8125 76.875 64.875C74.0625 66.375 70.875 67.3125 67.6875 67.3125ZM67.6875 33.5625C65.0625 33.5625 62.4375 34.125 60 35.625C52.5 39.9375 49.875 49.5 54.1875 56.8125C58.5 64.125 68.0625 66.75 75.5625 62.625C82.875 58.3125 85.5 48.75 81.1875 41.25C78.1875 36.375 72.9375 33.5625 67.6875 33.5625Z" fill="#82A1FF"/>
<path fill-rule="evenodd" clip-rule="evenodd" d="M90.5625 94.125C90.1875 94.125 89.625 94.125 89.25 93.9375C87.9375 93.5625 86.8125 92.625 86.0625 91.3125L75 72.5625C74.625 71.8125 74.625 71.0625 74.8125 70.3125C75.1875 69.5625 75.5625 69 76.3125 68.625L80.4375 66.1875C81.75 65.4375 83.4375 65.8125 84.375 67.125L95.25 86.0625C96.75 88.5 95.8125 91.875 93.375 93.375C92.4375 93.9375 91.5 94.125 90.5625 94.125ZM77.25 71.4375L88.3125 90C88.6875 90.75 89.25 91.125 90 91.3125C90.5625 91.5 91.3125 91.5 91.875 91.125C92.625 90.75 93 90.1875 93.1875 89.4375C93.375 88.6875 93.375 88.125 93 87.375L82.125 68.625C81.9375 68.4375 81.75 68.4375 81.5625 68.4375L77.625 70.875H77.4375C77.4375 70.875 77.25 71.25 77.25 71.4375Z" fill="#82A1FF"/>
<path fill-rule="evenodd" clip-rule="evenodd" d="M67.6875 61.875C66.5625 61.875 65.4375 61.6875 64.3125 61.5C61.125 60.5625 58.3125 58.3125 56.625 55.3125C54.9375 52.5 54.375 48.9375 55.3125 45.5625C56.25 42.375 58.3125 39.5625 61.3125 38.0625C67.5 34.5 75.1875 36.5625 78.75 42.5625C80.4375 45.5625 81 48.9375 80.0625 52.3125C79.125 55.6875 77.0625 58.5 74.25 60.1875C72.1875 61.3125 69.9375 61.875 67.6875 61.875ZM67.6875 39C66 39 64.125 39.375 62.4375 40.3125C60.1875 41.625 58.5 43.6875 57.9375 46.3125C57.1875 48.9375 57.5625 51.75 58.875 54C60.1875 56.4375 62.4375 58.125 65.0625 58.875C67.6875 59.625 70.5 59.25 72.9375 57.9375C77.625 55.125 79.3125 48.75 76.5 44.0625C74.625 40.6875 71.25 39 67.6875 39Z" fill="#82A1FF"/>
<path fill-rule="evenodd" clip-rule="evenodd" d="M76.6875 71.0625C76.3125 71.0625 75.75 70.875 75.5625 70.5L72.5625 65.625C72.1875 64.875 72.375 64.125 72.9375 63.75C73.6875 63.375 74.4375 63.5625 74.8125 64.125L77.8125 69C78.1875 69.75 78 70.5 77.4375 70.875C77.25 71.0625 76.875 71.0625 76.6875 71.0625ZM81.1875 68.625C80.8125 68.625 80.25 68.4375 80.0625 67.875L77.0625 62.8125C76.6875 62.25 76.875 61.5 77.625 61.125C78.1875 60.75 78.9375 60.9375 79.3125 61.5L82.3125 66.5625C82.6875 67.3125 82.5 68.0625 81.9375 68.4375C81.5625 68.625 81.375 68.625 81.1875 68.625Z" fill="#82A1FF"/>
<path fill-rule="evenodd" clip-rule="evenodd" d="M30.75 48.1875C30.5625 48.1875 30.375 48.1875 30.1875 48C30 48 24.375 45 19.6875 39.1875C15.1875 33.75 10.6875 24.75 14.0625 12C14.25 11.4375 14.625 11.0625 15.1875 11.0625C23.4375 10.3125 29.625 2.4375 29.8125 2.4375C30 2.0625 30.375 1.875 30.75 1.875C31.125 1.875 31.5 2.0625 31.875 2.4375C31.875 2.4375 38.0625 10.3125 46.3125 11.0625C46.875 11.0625 47.25 11.4375 47.4375 12C50.8125 24.75 46.3125 33.75 41.8125 39.1875C37.125 45 31.5 48 31.3125 48C31.125 48.1875 30.9375 48.1875 30.75 48.1875ZM16.5 13.5C14.25 22.5 15.9375 30.5625 21.5625 37.5C25.125 41.8125 29.25 44.4375 30.75 45.375C32.25 44.4375 36.375 41.8125 39.9375 37.5C45.5625 30.5625 47.25 22.5 45 13.5C38.25 12.5625 33 7.5 30.75 5.25C28.6875 7.5 23.25 12.5625 16.5 13.5Z" fill="#D50060"/>
<path fill-rule="evenodd" clip-rule="evenodd" d="M34.5 34.875H27C26.25 34.875 25.6875 34.3125 25.6875 33.5625V30.1875H22.3125C21.5625 30.1875 21 29.625 21 28.875V21.1875C21 20.4375 21.5625 19.875 22.3125 19.875H25.6875V16.5C25.6875 15.75 26.25 15.1875 27 15.1875H34.5C35.25 15.1875 35.8125 15.75 35.8125 16.5V19.875H39.1875C39.9375 19.875 40.5 20.4375 40.5 21.1875V28.875C40.5 29.625 39.9375 30.1875 39.1875 30.1875H35.8125V33.5625C35.8125 34.3125 35.25 34.875 34.5 34.875ZM28.3125 32.25H33.1875V28.875C33.1875 28.125 33.75 27.5625 34.5 27.5625H37.875V22.5H34.5C33.75 22.5 33.1875 21.9375 33.1875 21.1875V17.8125H28.3125V21.1875C28.3125 21.9375 27.75 22.5 27 22.5H23.625V27.5625H27C27.75 27.5625 28.3125 28.125 28.3125 28.875V32.25Z" fill="#D50060"/>
<path fill-rule="evenodd" clip-rule="evenodd" d="M85.3125 89.25H5.8125C5.0625 89.25 4.5 88.6875 4.5 87.9375V13.5C4.5 12.75 5.0625 12.1875 5.8125 12.1875C6.5625 12.1875 7.125 12.75 7.125 13.5V86.625H85.3125C86.0625 86.625 86.625 87.1875 86.625 87.9375C86.625 88.6875 86.0625 89.25 85.3125 89.25Z" fill="#82A1FF"/>
<path fill-rule="evenodd" clip-rule="evenodd" d="M5.8125 89.25C5.625 89.25 5.4375 89.25 5.25 89.0625C4.5 88.6875 4.3125 87.9375 4.6875 87.1875L16.125 67.5C15.375 66.75 14.8125 65.625 14.8125 64.5C14.8125 62.0625 16.875 60.1875 19.3125 60.1875C21.75 60.1875 23.8125 62.0625 23.8125 64.5C23.8125 64.875 23.8125 65.25 23.625 65.625L34.3125 71.8125C35.0625 71.0625 35.8125 70.6875 36.5625 70.5V57.1875C34.875 56.625 33.5625 54.9375 33.5625 53.0625C33.5625 50.4375 35.4375 48.5625 37.875 48.5625C39.5625 48.5625 40.875 49.3125 41.8125 50.625L50.4375 48.1875C51.1875 48 51.9375 48.375 52.125 49.125C52.3125 49.875 51.9375 50.625 51.1875 50.8125L42.375 53.0625C42.375 55.125 41.0625 56.625 39.1875 57.1875V71.0625C40.6875 71.625 41.8125 73.125 41.8125 75C41.8125 77.4375 39.9375 79.5 37.5 79.5C35.0625 79.5 33 77.4375 33 75C33 74.625 33 74.4375 33.1875 74.0625L22.3125 67.875C21.5625 68.625 20.4375 69 19.3125 69C18.9375 69 18.75 69 18.375 68.8125L6.9375 88.5C6.75 89.0625 6.1875 89.25 5.8125 89.25ZM35.8125 74.0625C35.8125 74.25 35.625 74.625 35.625 75C35.625 75.9375 36.375 76.875 37.5 76.875C38.4375 76.875 39.1875 75.9375 39.1875 75C39.1875 74.0625 38.625 73.3125 37.6875 73.3125C37.5 73.3125 37.3125 73.125 37.3125 73.125C36.75 73.125 36.1875 73.5 35.8125 74.0625ZM18.375 66.1875C18.75 66.1875 18.9375 66.375 19.3125 66.375C19.875 66.375 20.625 66 20.8125 65.625C20.8125 65.4375 20.8125 65.4375 20.8125 65.4375C21 65.0625 21.1875 64.875 21.1875 64.5C21.1875 63.5625 20.25 62.8125 19.3125 62.8125C18.375 62.8125 17.4375 63.5625 17.4375 64.5C17.4375 65.0625 17.8125 65.8125 18.375 66.1875ZM37.875 51.1875C36.9375 51.1875 36.1875 51.9375 36.1875 53.0625C36.1875 54 36.9375 54.75 37.875 54.75C39 54.75 39.75 54 39.75 53.0625V52.3125C39.5625 51.5625 38.8125 51.1875 37.875 51.1875ZM65.25 50.0625C63.75 50.0625 62.25 49.3125 61.5 48L56.625 49.5C55.875 49.6875 55.125 49.3125 54.9375 48.5625C54.75 47.8125 55.125 47.0625 55.875 46.875L60.75 45.5625C60.9375 43.125 62.8125 41.25 65.25 41.25C66 41.25 66.75 41.4375 67.3125 41.8125L71.25 37.6875C71.8125 37.125 72.5625 37.125 73.125 37.6875C73.6875 38.25 73.6875 39 73.125 39.5625L69.1875 43.6875C69.5625 44.25 69.75 45 69.75 45.75C69.75 48.1875 67.6875 50.0625 65.25 50.0625ZM63.5625 46.125C63.75 46.875 64.3125 47.4375 65.25 47.4375C66.1875 47.4375 67.125 46.6875 67.125 45.75C67.125 45.1875 66.9375 44.8125 66.5625 44.4375C66.375 44.0625 65.625 43.875 65.25 43.875C64.3125 43.875 63.375 44.625 63.375 45.75C63.375 45.9375 63.5625 45.9375 63.5625 46.125ZM76.3125 35.8125C75.9375 35.8125 75.5625 35.625 75.375 35.4375C74.8125 34.875 74.8125 34.125 75.375 33.5625L82.5 26.625C81.9375 25.875 81.9375 24.9375 81.9375 24.5625C81.9375 22.125 83.8125 20.0625 86.25 20.0625C88.875 20.0625 90.75 21.9375 90.75 24.5625C90.75 27 88.875 29.0625 86.25 29.0625C85.6875 29.0625 84.9375 28.875 84.375 28.5L77.25 35.4375C77.0625 35.625 76.6875 35.8125 76.3125 35.8125ZM86.25 22.6875C85.3125 22.6875 84.5625 23.625 84.5625 24.5625C84.5625 25.125 84.75 25.5 84.75 25.5L85.125 25.875C85.5 26.25 85.875 26.4375 86.25 26.4375C87.375 26.4375 88.125 25.5 88.125 24.5625C88.125 23.625 87.375 22.6875 86.25 22.6875Z" fill="#82A1FF"/>
<path fill-rule="evenodd" clip-rule="evenodd" d="M1.3125 19.3125C0.9375 19.3125 0.5625 19.125 0.375 18.9375C-0.1875 18.375 -0.1875 17.625 0.375 17.0625L4.875 12.5625C5.4375 12 6.1875 12 6.75 12.5625C7.3125 13.125 7.3125 13.875 6.75 14.4375L2.25 18.9375C2.0625 19.125 1.6875 19.3125 1.3125 19.3125Z" fill="#82A1FF"/>
<path fill-rule="evenodd" clip-rule="evenodd" d="M10.3125 19.3125C9.9375 19.3125 9.5625 19.125 9.375 18.9375L4.875 14.4375C4.3125 13.875 4.3125 13.125 4.875 12.5625C5.4375 12 6.1875 12 6.75 12.5625L11.25 17.0625C11.8125 17.625 11.8125 18.375 11.25 18.9375C11.0625 19.125 10.6875 19.3125 10.3125 19.3125Z" fill="#82A1FF"/>
</g>
<defs>
<clipPath id="clip0_4_80">
<rect width="96" height="96" fill="white"/>
</clipPath>
</defs>
</svg>
