<svg width="91" height="25" viewBox="0 0 91 25" fill="none" xmlns="http://www.w3.org/2000/svg">
<g clip-path="url(#clip0_2_20)">
<path d="M25.9484 0.347809H27.7471V24.8396H25.9484V0.347809Z" fill="#A5A5CC"/>
<path d="M6.87596 12.0688H15.657V13.7483H6.87596V12.0688Z" fill="#A5A5CC"/>
<path d="M0.158482 0.347809V24.8397H1.95723V13.7483H1.9596V12.0687H1.95738V2.02707H20.6098V0.347809" fill="#A5A5CC"/>
<path d="M81.8469 0.25325H67.513V24.7452H69.3117V15.613H69.3249V13.934H69.3119V1.933H81.7087C86.0676 1.933 89.0426 3.96215 89.0426 7.84576V7.91597C89.0426 11.5543 85.9982 13.9339 81.5009 13.9339H75.8278V15.613H81.3971C86.4478 15.613 90.8417 12.9539 90.8417 7.81082V7.74094C90.8417 3.01746 87.1745 0.25341 81.8467 0.25341" fill="#A5A5CC"/>
<path d="M57.0476 13.934L48.6498 0.160278H46.92L31.9616 24.8271H33.8297L47.7506 2.15482L55.0067 13.9339" fill="#A5A5CC"/>
<path d="M59.8107 18.466H57.7985L61.7172 24.8269H63.6887" fill="#A5A5CC"/>
</g>
<defs>
<clipPath id="clip0_2_20">
<rect width="91" height="25" fill="white"/>
</clipPath>
</defs>
</svg>
