<svg width="137" height="38" viewBox="0 0 137 38" fill="none" xmlns="http://www.w3.org/2000/svg">
<path d="M0 4C0 1.79086 1.79086 0 4 0H43C45.2091 0 47 1.79086 47 4V34C47 36.2091 45.2091 38 43 38H4C1.79086 38 0 36.2091 0 34V4Z" fill="white"/>
<path d="M19.3281 26.1602V28H10.7969V26.1602H19.3281ZM11.2422 10.9375V28H8.98047V10.9375H11.2422ZM23.9453 15.3203V28H21.7656V15.3203H23.9453ZM21.6016 11.957C21.6016 11.6055 21.707 11.3086 21.918 11.0664C22.1367 10.8242 22.457 10.7031 22.8789 10.7031C23.293 10.7031 23.6094 10.8242 23.8281 11.0664C24.0547 11.3086 24.168 11.6055 24.168 11.957C24.168 12.293 24.0547 12.582 23.8281 12.8242C23.6094 13.0586 23.293 13.1758 22.8789 13.1758C22.457 13.1758 22.1367 13.0586 21.918 12.8242C21.707 12.582 21.6016 12.293 21.6016 11.957ZM30.6602 28H28.4922V13.9844C28.4922 13.0703 28.6562 12.3008 28.9844 11.6758C29.3203 11.043 29.8008 10.5664 30.4258 10.2461C31.0508 9.91797 31.793 9.75391 32.6523 9.75391C32.9023 9.75391 33.1523 9.76953 33.4023 9.80078C33.6602 9.83203 33.9102 9.87891 34.1523 9.94141L34.0352 11.7109C33.8711 11.6719 33.6836 11.6445 33.4727 11.6289C33.2695 11.6133 33.0664 11.6055 32.8633 11.6055C32.4023 11.6055 32.0039 11.6992 31.668 11.8867C31.3398 12.0664 31.0898 12.332 30.918 12.6836C30.7461 13.0352 30.6602 13.4688 30.6602 13.9844V28ZM33.3555 15.3203V16.9844H26.4883V15.3203H33.3555ZM40.75 28.2344C39.8672 28.2344 39.0664 28.0859 38.3477 27.7891C37.6367 27.4844 37.0234 27.0586 36.5078 26.5117C36 25.9648 35.6094 25.3164 35.3359 24.5664C35.0625 23.8164 34.9258 22.9961 34.9258 22.1055V21.6133C34.9258 20.582 35.0781 19.6641 35.3828 18.8594C35.6875 18.0469 36.1016 17.3594 36.625 16.7969C37.1484 16.2344 37.7422 15.8086 38.4062 15.5195C39.0703 15.2305 39.7578 15.0859 40.4688 15.0859C41.375 15.0859 42.1562 15.2422 42.8125 15.5547C43.4766 15.8672 44.0195 16.3047 44.4414 16.8672C44.8633 17.4219 45.1758 18.0781 45.3789 18.8359C45.582 19.5859 45.6836 20.4062 45.6836 21.2969V22.2695H36.2148V20.5H43.5156V20.3359C43.4844 19.7734 43.3672 19.2266 43.1641 18.6953C42.9688 18.1641 42.6562 17.7266 42.2266 17.3828C41.7969 17.0391 41.2109 16.8672 40.4688 16.8672C39.9766 16.8672 39.5234 16.9727 39.1094 17.1836C38.6953 17.3867 38.3398 17.6914 38.043 18.0977C37.7461 18.5039 37.5156 19 37.3516 19.5859C37.1875 20.1719 37.1055 20.8477 37.1055 21.6133V22.1055C37.1055 22.707 37.1875 23.2734 37.3516 23.8047C37.5234 24.3281 37.7695 24.7891 38.0898 25.1875C38.418 25.5859 38.8125 25.8984 39.2734 26.125C39.7422 26.3516 40.2734 26.4648 40.8672 26.4648C41.6328 26.4648 42.2812 26.3086 42.8125 25.9961C43.3438 25.6836 43.8086 25.2656 44.207 24.7422L45.5195 25.7852C45.2461 26.1992 44.8984 26.5938 44.4766 26.9688C44.0547 27.3438 43.5352 27.6484 42.918 27.8828C42.3086 28.1172 41.5859 28.2344 40.75 28.2344Z" fill="#82A1FF"/>
<path d="M57.6367 23.6875C57.6367 23.2891 57.5742 22.9375 57.4492 22.6328C57.332 22.3203 57.1211 22.0391 56.8164 21.7891C56.5195 21.5391 56.1055 21.3008 55.5742 21.0742C55.0508 20.8477 54.3867 20.6172 53.582 20.3828C52.7383 20.1328 51.9766 19.8555 51.2969 19.5508C50.6172 19.2383 50.0352 18.8828 49.5508 18.4844C49.0664 18.0859 48.6953 17.6289 48.4375 17.1133C48.1797 16.5977 48.0508 16.0078 48.0508 15.3438C48.0508 14.6797 48.1875 14.0664 48.4609 13.5039C48.7344 12.9414 49.125 12.4531 49.6328 12.0391C50.1484 11.6172 50.7617 11.2891 51.4727 11.0547C52.1836 10.8203 52.9766 10.7031 53.8516 10.7031C55.1328 10.7031 56.2188 10.9492 57.1094 11.4414C58.0078 11.9258 58.6914 12.5625 59.1602 13.3516C59.6289 14.1328 59.8633 14.9688 59.8633 15.8594H57.6133C57.6133 15.2188 57.4766 14.6523 57.2031 14.1602C56.9297 13.6602 56.5156 13.2695 55.9609 12.9883C55.4062 12.6992 54.7031 12.5547 53.8516 12.5547C53.0469 12.5547 52.3828 12.6758 51.8594 12.918C51.3359 13.1602 50.9453 13.4883 50.6875 13.9023C50.4375 14.3164 50.3125 14.7891 50.3125 15.3203C50.3125 15.6797 50.3867 16.0078 50.5352 16.3047C50.6914 16.5938 50.9297 16.8633 51.25 17.1133C51.5781 17.3633 51.9922 17.5938 52.4922 17.8047C53 18.0156 53.6055 18.2188 54.3086 18.4141C55.2773 18.6875 56.1133 18.9922 56.8164 19.3281C57.5195 19.6641 58.0977 20.043 58.5508 20.4648C59.0117 20.8789 59.3516 21.3516 59.5703 21.8828C59.7969 22.4062 59.9102 23 59.9102 23.6641C59.9102 24.3594 59.7695 24.9883 59.4883 25.5508C59.207 26.1133 58.8047 26.5938 58.2812 26.9922C57.7578 27.3906 57.1289 27.6992 56.3945 27.918C55.668 28.1289 54.8555 28.2344 53.957 28.2344C53.168 28.2344 52.3906 28.125 51.625 27.9062C50.8672 27.6875 50.1758 27.3594 49.5508 26.9219C48.9336 26.4844 48.4375 25.9453 48.0625 25.3047C47.6953 24.6562 47.5117 23.9062 47.5117 23.0547H49.7617C49.7617 23.6406 49.875 24.1445 50.1016 24.5664C50.3281 24.9805 50.6367 25.3242 51.0273 25.5977C51.4258 25.8711 51.875 26.0742 52.375 26.207C52.8828 26.332 53.4102 26.3945 53.957 26.3945C54.7461 26.3945 55.4141 26.2852 55.9609 26.0664C56.5078 25.8477 56.9219 25.5352 57.2031 25.1289C57.4922 24.7227 57.6367 24.2422 57.6367 23.6875ZM70.2227 25.0703V15.3203H72.4023V28H70.3281L70.2227 25.0703ZM70.6328 22.3984L71.5352 22.375C71.5352 23.2188 71.4453 24 71.2656 24.7188C71.0938 25.4297 70.8125 26.0469 70.4219 26.5703C70.0312 27.0938 69.5195 27.5039 68.8867 27.8008C68.2539 28.0898 67.4844 28.2344 66.5781 28.2344C65.9609 28.2344 65.3945 28.1445 64.8789 27.9648C64.3711 27.7852 63.9336 27.5078 63.5664 27.1328C63.1992 26.7578 62.9141 26.2695 62.7109 25.668C62.5156 25.0664 62.418 24.3438 62.418 23.5V15.3203H64.5859V23.5234C64.5859 24.0938 64.6484 24.5664 64.7734 24.9414C64.9062 25.3086 65.082 25.6016 65.3008 25.8203C65.5273 26.0312 65.7773 26.1797 66.0508 26.2656C66.332 26.3516 66.6211 26.3945 66.918 26.3945C67.8398 26.3945 68.5703 26.2188 69.1094 25.8672C69.6484 25.5078 70.0352 25.0273 70.2695 24.4258C70.5117 23.8164 70.6328 23.1406 70.6328 22.3984ZM83.0898 24.6367C83.0898 24.3242 83.0195 24.0352 82.8789 23.7695C82.7461 23.4961 82.4688 23.25 82.0469 23.0312C81.6328 22.8047 81.0078 22.6094 80.1719 22.4453C79.4688 22.2969 78.832 22.1211 78.2617 21.918C77.6992 21.7148 77.2188 21.4688 76.8203 21.1797C76.4297 20.8906 76.1289 20.5508 75.918 20.1602C75.707 19.7695 75.6016 19.3125 75.6016 18.7891C75.6016 18.2891 75.7109 17.8164 75.9297 17.3711C76.1562 16.9258 76.4727 16.5312 76.8789 16.1875C77.293 15.8438 77.7891 15.5742 78.3672 15.3789C78.9453 15.1836 79.5898 15.0859 80.3008 15.0859C81.3164 15.0859 82.1836 15.2656 82.9023 15.625C83.6211 15.9844 84.1719 16.4648 84.5547 17.0664C84.9375 17.6602 85.1289 18.3203 85.1289 19.0469H82.9609C82.9609 18.6953 82.8555 18.3555 82.6445 18.0273C82.4414 17.6914 82.1406 17.4141 81.7422 17.1953C81.3516 16.9766 80.8711 16.8672 80.3008 16.8672C79.6992 16.8672 79.2109 16.9609 78.8359 17.1484C78.4688 17.3281 78.1992 17.5586 78.0273 17.8398C77.8633 18.1211 77.7812 18.418 77.7812 18.7305C77.7812 18.9648 77.8203 19.1758 77.8984 19.3633C77.9844 19.543 78.1328 19.7109 78.3438 19.8672C78.5547 20.0156 78.8516 20.1562 79.2344 20.2891C79.6172 20.4219 80.1055 20.5547 80.6992 20.6875C81.7383 20.9219 82.5938 21.2031 83.2656 21.5312C83.9375 21.8594 84.4375 22.2617 84.7656 22.7383C85.0938 23.2148 85.2578 23.793 85.2578 24.4727C85.2578 25.0273 85.1406 25.5352 84.9062 25.9961C84.6797 26.457 84.3477 26.8555 83.9102 27.1914C83.4805 27.5195 82.9648 27.7773 82.3633 27.9648C81.7695 28.1445 81.1016 28.2344 80.3594 28.2344C79.2422 28.2344 78.2969 28.0352 77.5234 27.6367C76.75 27.2383 76.1641 26.7227 75.7656 26.0898C75.3672 25.457 75.168 24.7891 75.168 24.0859H77.3477C77.3789 24.6797 77.5508 25.1523 77.8633 25.5039C78.1758 25.8477 78.5586 26.0938 79.0117 26.2422C79.4648 26.3828 79.9141 26.4531 80.3594 26.4531C80.9531 26.4531 81.4492 26.375 81.8477 26.2188C82.2539 26.0625 82.5625 25.8477 82.7734 25.5742C82.9844 25.3008 83.0898 24.9883 83.0898 24.6367ZM93.4141 15.3203V16.9844H86.5586V15.3203H93.4141ZM88.8789 12.2383H91.0469V24.8594C91.0469 25.2891 91.1133 25.6133 91.2461 25.832C91.3789 26.0508 91.5508 26.1953 91.7617 26.2656C91.9727 26.3359 92.1992 26.3711 92.4414 26.3711C92.6211 26.3711 92.8086 26.3555 93.0039 26.3242C93.207 26.2852 93.3594 26.2539 93.4609 26.2305L93.4727 28C93.3008 28.0547 93.0742 28.1055 92.793 28.1523C92.5195 28.207 92.1875 28.2344 91.7969 28.2344C91.2656 28.2344 90.7773 28.1289 90.332 27.918C89.8867 27.707 89.5312 27.3555 89.2656 26.8633C89.0078 26.3633 88.8789 25.6914 88.8789 24.8477V12.2383ZM101.219 28.2344C100.336 28.2344 99.5352 28.0859 98.8164 27.7891C98.1055 27.4844 97.4922 27.0586 96.9766 26.5117C96.4688 25.9648 96.0781 25.3164 95.8047 24.5664C95.5312 23.8164 95.3945 22.9961 95.3945 22.1055V21.6133C95.3945 20.582 95.5469 19.6641 95.8516 18.8594C96.1562 18.0469 96.5703 17.3594 97.0938 16.7969C97.6172 16.2344 98.2109 15.8086 98.875 15.5195C99.5391 15.2305 100.227 15.0859 100.938 15.0859C101.844 15.0859 102.625 15.2422 103.281 15.5547C103.945 15.8672 104.488 16.3047 104.91 16.8672C105.332 17.4219 105.645 18.0781 105.848 18.8359C106.051 19.5859 106.152 20.4062 106.152 21.2969V22.2695H96.6836V20.5H103.984V20.3359C103.953 19.7734 103.836 19.2266 103.633 18.6953C103.438 18.1641 103.125 17.7266 102.695 17.3828C102.266 17.0391 101.68 16.8672 100.938 16.8672C100.445 16.8672 99.9922 16.9727 99.5781 17.1836C99.1641 17.3867 98.8086 17.6914 98.5117 18.0977C98.2148 18.5039 97.9844 19 97.8203 19.5859C97.6562 20.1719 97.5742 20.8477 97.5742 21.6133V22.1055C97.5742 22.707 97.6562 23.2734 97.8203 23.8047C97.9922 24.3281 98.2383 24.7891 98.5586 25.1875C98.8867 25.5859 99.2812 25.8984 99.7422 26.125C100.211 26.3516 100.742 26.4648 101.336 26.4648C102.102 26.4648 102.75 26.3086 103.281 25.9961C103.812 25.6836 104.277 25.2656 104.676 24.7422L105.988 25.7852C105.715 26.1992 105.367 26.5938 104.945 26.9688C104.523 27.3438 104.004 27.6484 103.387 27.8828C102.777 28.1172 102.055 28.2344 101.219 28.2344ZM110.852 18.0273V28H108.684V15.3203H110.734L110.852 18.0273ZM110.336 21.1797L109.434 21.1445C109.441 20.2773 109.57 19.4766 109.82 18.7422C110.07 18 110.422 17.3555 110.875 16.8086C111.328 16.2617 111.867 15.8398 112.492 15.543C113.125 15.2383 113.824 15.0859 114.59 15.0859C115.215 15.0859 115.777 15.1719 116.277 15.3438C116.777 15.5078 117.203 15.7734 117.555 16.1406C117.914 16.5078 118.188 16.9844 118.375 17.5703C118.562 18.1484 118.656 18.8555 118.656 19.6914V28H116.477V19.668C116.477 19.0039 116.379 18.4727 116.184 18.0742C115.988 17.668 115.703 17.375 115.328 17.1953C114.953 17.0078 114.492 16.9141 113.945 16.9141C113.406 16.9141 112.914 17.0273 112.469 17.2539C112.031 17.4805 111.652 17.793 111.332 18.1914C111.02 18.5898 110.773 19.0469 110.594 19.5625C110.422 20.0703 110.336 20.6094 110.336 21.1797ZM127.258 15.3203V16.9844H120.402V15.3203H127.258ZM122.723 12.2383H124.891V24.8594C124.891 25.2891 124.957 25.6133 125.09 25.832C125.223 26.0508 125.395 26.1953 125.605 26.2656C125.816 26.3359 126.043 26.3711 126.285 26.3711C126.465 26.3711 126.652 26.3555 126.848 26.3242C127.051 26.2852 127.203 26.2539 127.305 26.2305L127.316 28C127.145 28.0547 126.918 28.1055 126.637 28.1523C126.363 28.207 126.031 28.2344 125.641 28.2344C125.109 28.2344 124.621 28.1289 124.176 27.918C123.73 27.707 123.375 27.3555 123.109 26.8633C122.852 26.3633 122.723 25.6914 122.723 24.8477V12.2383Z" fill="white"/>
</svg>
