<svg width="65" height="65" viewBox="0 0 65 65" fill="none" xmlns="http://www.w3.org/2000/svg">
<g clip-path="url(#clip0_60_4)">
<path d="M9.53674e-07 43.7233H12.6398V45.5325H9.53674e-07V43.7233ZM9.53674e-07 40.2512H12.6398V42.0658H9.53674e-07V40.2512ZM3.60208 36.7873H9.02688V38.6046H3.60208V36.7873ZM3.60208 33.326H9.02688V35.1406H3.60208V33.326ZM3.60208 29.8594H9.02688V31.6767H3.60208V29.8594ZM3.60208 26.39H9.02688V28.2073H3.60208V26.39ZM9.53674e-07 22.9287H12.6398V24.7433H9.53674e-07V22.9287ZM9.53674e-07 19.4648H12.6398V21.2794H9.53674e-07V19.4648ZM14.4408 42.0658H33.8785C34.2035 41.5079 34.4527 40.8931 34.6017 40.2512H14.4435V42.0658H14.4408ZM32.3646 33.326H18.0565V35.1406H33.8813C33.4803 34.457 32.9698 33.844 32.37 33.326H32.3646ZM18.0538 29.8594V31.6767H32.3673C32.9713 31.1675 33.4777 30.5554 33.8813 29.8594H18.0538ZM33.8785 22.9287H14.4408V24.7433H34.599C34.4355 24.1108 34.1934 23.5012 33.8785 22.9287ZM27.904 19.4648H14.4408V21.2794H32.546C31.2825 20.1114 29.6246 19.4633 27.904 19.4648ZM18.0538 26.39H23.4704V28.2073H18.0538V26.39ZM28.8898 28.2073H34.5556C34.7154 27.6277 34.7994 27.0156 34.7994 26.39H28.8898V28.2073ZM18.0538 36.7873H23.4677V38.6046H18.051L18.0538 36.7873ZM28.8898 36.7873V38.6046H34.7994C34.7994 37.9817 34.7154 37.3669 34.5556 36.7873H28.8898ZM14.4408 45.5189L27.9013 45.5379C29.7077 45.5379 31.3354 44.8419 32.5515 43.7233H14.4408V45.5189ZM36.1129 43.7233H45.1371V45.5325H36.1129V43.7233ZM36.1129 40.2512H45.1371V42.0658H36.1129V40.2512ZM39.7177 36.7873H45.1344V38.6046H39.7177V36.7873ZM39.7177 33.326H45.1344V35.1406H39.7177V33.326ZM47.6504 22.9287H36.1129V24.7433H48.2733L47.6504 22.9287ZM46.4533 19.4648H36.1129V21.2767H47.0762L46.4533 19.4648ZM55.9677 43.7233H65V45.5325H55.9677V43.7233ZM55.9677 40.2512H65V42.0658H55.9677V40.2512ZM55.9677 36.7873H61.3844V38.6046H55.9677V36.7873ZM55.9677 33.326H61.3844V35.1406H55.9677V33.326ZM55.9677 31.6767H61.3844V29.8594H51.0629L50.5538 31.3273L50.0446 29.8594H39.7177V31.6767H45.1344V30.0083L45.7113 31.6767H55.3935L55.9677 30.0083V31.6767ZM61.3871 26.39H52.26L51.6371 28.2073H61.3871V26.39ZM54.6623 19.4648L54.0367 21.2767H65V19.4648H54.6623ZM50.5538 45.5189L51.1767 43.7233H49.9281L50.5538 45.5189ZM49.3567 42.0658H51.7508L52.3954 40.2512H48.7202L49.3567 42.0658ZM48.1406 38.6046H52.9669L53.6033 36.7873H47.5015L48.1406 38.6046ZM46.9273 35.1406H54.1829L54.8031 33.326H46.3044L46.9273 35.1406ZM39.7177 28.2073H49.4731L48.8475 26.39H39.7177V28.2073ZM52.8396 24.7433H65V22.9287H53.4571L52.8396 24.7433Z" fill="#8093CA"/>
</g>
<defs>
<clipPath id="clip0_60_4">
<rect width="65" height="65" fill="white"/>
</clipPath>
</defs>
</svg>
